<!DOCTYPE svg PUBLIC "-//W3C//DTD SVG 1.1//EN" "http://www.w3.org/Graphics/SVG/1.1/DTD/svg11.dtd">
<!-- Uploaded to: SVG Repo, www.svgrepo.com, Transformed by: SVG Repo Mixer Tools -->
<svg fill="#ffffff" height="800px" width="800px" version="1.1" id="Layer_1" xmlns="http://www.w3.org/2000/svg" xmlns:xlink="http://www.w3.org/1999/xlink" viewBox="0 0 512 512" xml:space="preserve">
<g id="SVGRepo_bgCarrier" stroke-width="0"/>
<g id="SVGRepo_tracerCarrier" stroke-linecap="round" stroke-linejoin="round"/>
<g id="SVGRepo_iconCarrier"> <g> <g> <path d="M489.082,22.935C474.077,7.93,452.228,0,425.902,0C371.86,0,305.709,32.7,275.41,62.999 c-40.966,40.97-46.836,103.914-17.672,151.22L8.318,463.636c-11.062,11.063-11.062,29.002,0,40.063 c5.534,5.534,12.782,8.3,20.033,8.3c7.248,0,14.501-2.767,20.031-8.3l249.394-249.39c19.177,11.878,41.313,18.255,64.438,18.255 c32.792,0,63.62-12.771,86.803-35.954c22.235-22.235,43.763-61.042,54.847-98.873C518.48,87.855,513.232,47.085,489.082,22.935z"/> </g> </g> </g>
</svg>