<svg version="1.1" id="Layer_1" xmlns="http://www.w3.org/2000/svg" xmlns:xlink="http://www.w3.org/1999/xlink" 
	 viewBox="0 0 512.001 512.001" xml:space="preserve">
<path style="fill:#B5CDDF;" d="M472.911,39.089C447.703,13.882,414.187,0,378.538,0c-35.65,0-69.165,13.882-94.373,39.09
	c-26.526,26.524-60.913,98.272-84.251,156.573c-12.927,32.294-23.547,63.095-29.903,86.728c-7.842,29.162-10.606,49.333-0.17,59.769
	c6.803,6.803,16.784,6.804,20.065,6.804c0.002,0,0.003,0,0.005,0c18.705,0,66.155-11.496,143.238-43.759
	c25.172-10.536,109.644-47.252,139.76-77.368C498.117,202.628,512,169.112,512,133.463
	C512.001,97.813,498.119,64.297,472.911,39.089z M450.378,103.14c-13.302,38.297-59.71,84.776-134.207,134.41
	c-17.449,11.626-35.053,22.478-51.737,32.232L454.223,79.993C454.488,87.29,453.215,94.971,450.378,103.14z M432.006,57.778
	L242.219,247.565c9.754-16.684,20.606-34.287,32.231-51.736c49.634-74.497,96.113-120.905,134.41-134.207
	C417.029,58.786,424.709,57.513,432.006,57.778z M306.382,61.307c19.274-19.273,44.9-29.887,72.156-29.887
	c5.903,0,11.729,0.5,17.432,1.476c-44.798,16.733-94.46,65.652-147.667,145.513c-7.112,10.675-13.951,21.423-20.445,32.006
	c1.591-4.006,3.237-8.092,4.954-12.273C259.579,132.943,288.457,79.232,306.382,61.307z M450.692,205.62
	c-17.058,17.058-67.958,44.77-129.674,70.601c-6.512,2.726-12.996,5.365-19.405,7.904c10.575-6.488,21.312-13.32,31.978-20.426
	c79.861-53.208,128.781-102.87,145.514-147.668c0.976,5.703,1.476,11.529,1.476,17.433
	C480.581,160.72,469.966,186.346,450.692,205.62z"/>
<path style="fill:#088690;" d="M10.79,449.116c-14.387,14.386-14.384,37.709-0.001,52.095c14.387,14.387,37.709,14.387,52.095,0
	l144.114-144.114l-52.094-52.094L10.79,449.116z"/>
<path style="fill:#0BAEBC;" d="M154.903,305.003L10.79,449.116c-14.387,14.386-14.384,37.709-0.001,52.095L180.95,331.049
	L154.903,305.003z"/>
</svg>