<svg xmlns="http://www.w3.org/2000/svg" xmlns:xlink="http://www.w3.org/1999/xlink" version="1.1" id="Layer_1" x="0px" y="0px" width="100%" viewBox="0 0 616 508" enable-background="new 0 0 616 508" xml:space="preserve">

<path fill="#FFFFFF" opacity="1.000000" stroke="none" d=" M96.966034,443.107056   C82.686958,443.365875 68.407303,443.858887 54.128956,443.823547   C36.731167,443.780487 19.334478,443.293060 1.468656,442.998932   C1.000000,315.312439 1.000000,187.624878 1.468651,59.471214   C41.446507,59.008301 80.955772,58.989510 120.464684,59.098278   C121.981659,59.102455 123.495239,60.335213 124.608871,60.986691   C123.139832,61.038361 122.072327,61.098827 120.537567,61.113277   C112.406799,61.093353 104.743279,61.119442 96.607574,61.106785   C85.772369,61.074364 75.409348,61.080692 64.573883,61.061710   C54.070328,61.036404 44.039223,61.036404 34.008121,61.036404   C34.011459,61.701099 34.014797,62.365795 34.018135,63.030491   C38.677475,63.030491 43.336811,63.030491 47.997108,63.497238   C47.998661,98.388992 47.915558,132.814423 48.088886,167.238571   C48.115292,172.483047 49.329556,177.721558 49.527412,182.975372   C44.021675,182.987915 38.982941,182.987915 33.944206,182.987915   C33.972157,183.631729 34.000111,184.275558 34.028065,184.919373   C43.367920,184.919373 52.707779,184.919373 62.512806,184.941757   C76.009300,184.934433 89.040627,184.904724 102.534485,184.914658   C108.325592,184.971680 113.657722,185.112091 118.981377,184.958694   C122.007851,184.871521 123.049194,185.980133 123.043427,189.009445   C122.972366,226.310883 122.959579,263.612610 123.053673,300.913940   C123.062424,304.382141 121.600601,305.106323 118.552597,305.035309   C113.062698,304.907318 107.565826,305.078613 101.598244,305.087799   C88.099907,305.061066 75.075188,305.071442 61.577526,305.058655   C52.132889,305.035431 43.161190,305.035431 34.189495,305.035431   C34.207874,305.703094 34.226254,306.370758 34.244633,307.038422   C38.827892,307.038422 43.411148,307.038422 47.995781,307.504669   C47.998051,343.019409 47.962463,378.067993 48.043926,413.116302   C48.054657,417.733582 48.663399,422.349487 48.530037,426.977722   C43.445351,426.989380 38.825798,426.989380 34.206245,426.989380   C34.216095,427.634033 34.225941,428.278687 34.235790,428.923340   C43.505287,428.923340 52.774784,428.923340 62.509903,428.939575   C74.314697,429.006958 85.653870,429.058105 96.994537,429.567871   C96.986031,434.386627 96.976036,438.746857 96.966034,443.107056  z"/>
<path fill="#FEFFFF" opacity="1.000000" stroke="none" d=" M617.000000,442.531342   C601.291138,443.000519 585.582275,443.001801 569.873413,443.001312   C559.678467,443.001007 549.483521,442.999725 539.288574,442.995514   C536.129028,442.994232 532.969543,442.981812 529.252563,442.564514   C519.093506,441.953735 521.039673,434.949982 521.477295,429.074554   C533.279175,428.998047 544.614319,428.956909 556.422485,428.939301   C565.853699,428.962830 574.811951,428.962830 583.770264,428.962830   C583.779602,428.297455 583.788879,427.632111 583.798218,426.966736   C579.867981,426.966736 575.937805,426.966736 572.005615,426.500183   C572.002441,409.267242 571.964600,392.500671 572.046631,375.734711   C572.056885,373.645416 572.630493,371.543762 573.072021,369.475342   C573.647217,366.780365 575.002441,364.084686 574.887756,361.438446   C574.374817,349.604675 576.247253,337.751709 573.278381,325.882721   C571.793091,319.944885 573.010071,313.331055 573.462463,307.013885   C577.284058,307.004791 580.648010,307.004791 584.011963,307.004791   C583.993591,306.398438 583.975220,305.792114 583.956787,305.185760   C574.600830,305.185760 565.244873,305.185760 555.428833,305.144958   C541.957886,305.112061 528.946960,305.119934 515.473022,305.087524   C509.344055,305.030182 503.678101,305.007385 498.012146,304.997711   C491.006897,304.985718 491.010620,304.990448 491.000336,297.980286   C490.948883,262.985474 490.895325,227.990646 490.890442,192.551025   C491.283905,185.022324 489.409241,184.982071 498.192993,184.987061   C504.102234,184.990417 510.011566,184.907745 516.395142,184.903900   C529.896240,184.934631 542.923035,184.924988 556.422668,184.939026   C565.853882,184.962692 574.812195,184.962692 583.770447,184.962692   C583.789917,184.295654 583.809387,183.628616 583.828857,182.961578   C580.221008,182.961578 576.613159,182.961578 573.004028,182.495331   C573.001770,145.940079 573.002380,109.851074 572.998840,73.762070   C572.998047,65.758987 572.250427,65.172455 564.118225,64.913124   C561.731750,64.837013 559.378418,63.721107 557.477173,63.059460   C566.637817,63.037155 575.331177,63.037155 584.024536,63.037155   C584.012390,62.378170 584.000244,61.719185 583.988098,61.060200   C574.319946,61.060200 564.651794,61.060200 554.516113,61.048843   C543.021729,60.962273 531.994812,60.887054 520.978516,60.539921   C520.994324,59.902859 520.999451,59.537712 521.468140,59.101593   C553.621155,59.020412 585.310547,59.010208 617.000000,59.000000   C617.000000,186.687561 617.000000,314.375122 617.000000,442.531342  z"/>


<path fill="#B5BDC2" opacity="1.000000" stroke="none" d=" M124.608871,60.986691   C174.749664,60.995483 224.488922,60.995483 275.007568,60.995483   C275.007568,41.061440 275.007568,21.499365 275.003784,1.468645   C296.020905,1.000000 317.041779,1.000000 338.531342,1.000000   C339.000000,20.769251 339.000000,40.538502 339.000000,61.009884   C390.295288,61.009884 441.150299,61.009884 492.498230,60.900215   C492.991089,60.790543 493.211456,60.833214 493.148010,61.162857   C493.034119,61.933216 492.983704,62.373924 492.966156,62.890205   C492.999054,62.965775 493.063324,63.117569 492.663300,63.182533   C491.841858,65.071228 491.059082,66.893837 491.053375,68.718864   C490.973114,94.336014 490.998962,119.953506 490.998535,145.570908   C490.998352,156.549789 491.108429,167.530487 490.931580,178.506531   C490.874908,182.023666 492.100830,183.215195 495.551544,183.057755   C501.029694,182.807800 506.523682,182.906433 512.401428,182.901260   C513.835815,183.005630 514.879700,183.066345 515.934875,183.416718   C515.937683,184.092102 515.929260,184.477829 515.920837,184.863541   C510.011566,184.907745 504.102234,184.990417 498.192993,184.987061   C489.409241,184.982071 491.283905,185.022324 490.609619,192.552002   C489.905579,192.997437 489.530273,192.997070 489.104858,192.551834   C488.732025,184.893784 490.503998,185.000381 481.653534,184.990158   C449.438141,184.952957 417.222717,184.894638 385.006958,184.561279   C385.007233,183.900925 385.007843,183.523575 385.474487,183.099640   C418.426849,183.038315 450.913513,182.950623 483.399078,183.096909   C487.685913,183.116211 489.128815,182.068420 489.106354,177.548798   C488.925873,141.231400 488.936462,104.912415 489.090607,68.594772   C489.108917,64.279243 488.010590,62.860466 483.518341,62.900303   C459.530182,63.113007 435.539093,63.000042 411.549042,63.000275   C398.887604,63.000397 386.225037,63.096157 373.565521,62.940598   C370.101837,62.898033 368.796631,64.012619 368.954254,67.523209   C369.155640,72.008438 368.917297,76.513412 368.581848,81.007996   C367.911957,81.007217 367.528717,81.008316 367.093750,80.542816   C367.020752,75.576706 366.923767,71.075775 367.007874,66.578247   C367.054840,64.070114 366.157837,62.950062 363.530609,62.986904   C356.532349,63.085037 349.531006,63.078449 342.532532,62.987762   C339.974304,62.954609 338.949890,63.944984 338.982056,66.515862   C339.042450,71.345329 338.901825,76.177315 338.563354,81.007065   C337.906647,81.006439 337.531403,81.006989 337.105103,80.540588   C337.036865,79.073990 337.005005,78.074371 337.004517,77.074730   C336.993683,54.076893 336.910370,31.078587 337.052704,8.081681   C337.076508,4.237402 336.082184,2.659546 332.023132,2.948395   C327.047272,3.302488 322.033264,3.121416 316.567017,3.125336   C304.636780,3.056105 293.172729,3.164476 281.715363,2.936204   C277.922485,2.860637 276.919189,4.212164 276.942871,7.842753   C277.089996,30.430859 277.036957,53.020267 276.633057,75.437759   C275.812256,72.586426 275.063843,69.902702 275.093872,67.227730   C275.130310,63.984924 273.990234,62.855675 270.762665,62.949162   C264.149567,63.140717 257.524933,63.143421 250.910553,62.988930   C247.799088,62.916252 246.885132,64.224541 246.947708,67.117455   C247.047806,71.744934 246.882233,76.378159 246.550568,81.007904   C245.901611,81.007545 245.531067,81.008232 245.118668,80.541954   C245.056976,76.582237 245.028671,73.089493 245.019135,69.596703   C245.001083,62.999115 245.005585,62.981178 238.584915,62.980347   C203.155121,62.975761 167.725342,62.978977 132.295547,62.983658   C125.002068,62.984619 125.007126,62.992729 124.996986,70.213135   C124.946999,105.807213 124.894119,141.401291 124.562057,176.995987   C123.908279,176.996368 123.534683,176.996140 123.110733,176.529694   C123.041031,171.912888 123.010765,167.762283 123.004097,163.611664   C122.951302,130.738037 122.902992,97.864418 122.848442,64.663223   C122.211670,63.823692 121.579773,63.311729 120.960518,62.526192   C120.983719,61.888176 120.994263,61.523731 121.004814,61.159286   C122.072327,61.098827 123.139832,61.038361 124.608871,60.986691  z"/>
<path fill="#B4B8C3" opacity="1.000000" stroke="none" d=" M175.468658,509.000000   C175.000000,503.236389 175.000000,497.472778 175.000000,491.087616   C185.067749,491.087616 194.728455,491.087616 204.890579,491.087616   C204.890579,485.588013 204.890579,480.694855 204.890579,474.969147   C208.949585,474.969147 212.517105,474.969147 217.008667,474.973541   C268.480042,474.990540 319.027374,475.011780 369.574707,475.007324   C378.051392,475.006592 386.528107,474.894623 395.004791,474.834045   C399.438599,474.834045 403.872375,474.834045 408.802429,474.834045   C408.802429,480.343323 408.802429,485.238312 408.802429,490.764221   C418.938385,490.764221 428.595581,490.764221 439.004578,490.764221   C439.004578,496.937561 439.004578,502.500610 439.002289,508.531830   C351.312439,509.000000 263.624878,509.000000 175.468658,509.000000  M207.267242,489.825867   C209.271240,490.216583 211.274826,490.946075 213.279297,490.948547   C267.069092,491.014862 320.859009,491.006073 374.648895,491.011169   C383.974701,491.012054 393.300964,491.065704 402.625732,490.969696   C403.985138,490.955688 406.464325,490.345093 406.512695,489.830688   C406.868042,486.051300 407.175537,482.138306 406.443695,478.478271   C406.265076,477.584900 402.174744,477.065521 399.882141,477.062683   C340.263733,476.989532 280.645172,477.006683 221.026672,477.011078   C217.529556,477.011322 214.026764,477.162842 210.537018,477.008514   C207.513260,476.874786 206.703888,478.298096 207.054855,481.857849   C207.089401,484.249939 207.123947,486.642059 207.267242,489.825867  M177.244171,505.827637   C179.248306,506.214539 181.252197,506.938385 183.256592,506.939850   C265.545349,506.999420 347.834106,506.994202 430.122894,506.995819   C431.455414,506.995850 432.808105,507.116272 434.113525,506.923889   C435.008087,506.792023 436.556793,506.257538 436.582458,505.829224   C436.810272,502.030457 437.199677,498.129639 436.481384,494.466797   C436.307953,493.582520 432.202423,493.063263 429.904388,493.060791   C361.108368,492.986969 292.312286,492.991913 223.516205,493.004211   C209.358826,493.006744 195.201447,493.087341 180.205963,493.049438   C179.134613,494.091736 177.306625,495.027222 177.141418,496.197449   C176.733856,499.084656 177.089157,502.079559 177.244171,505.827637  z"/>
<path fill="#B6BCC1" opacity="1.000000" stroke="none" d=" M492.934601,429.022278   C477.782806,429.014709 462.630035,429.097382 447.480011,428.930634   C444.058990,428.892975 442.158752,430.064453 440.342438,432.987305   C437.922882,436.880890 434.584137,440.192749 431.791534,443.869415   C430.372742,445.737457 429.285309,447.857239 427.567139,450.642975   C348.689087,450.642975 268.690796,450.642975 189.634674,450.642975   C185.586655,445.363708 181.360504,440.839325 178.313797,435.625702   C174.612991,429.292786 169.304230,428.748688 162.928345,428.910126   C150.614914,429.221985 138.288071,429.003204 125.029617,429.006592   C116.750557,428.971313 109.408676,428.933838 102.054474,428.605225   C102.055595,427.924622 102.069038,427.535217 102.542702,427.109253   C107.500931,427.049347 111.998917,427.018494 116.496956,427.004395   C122.982567,426.984070 122.983498,426.989258 122.993118,420.465363   C123.042007,387.312927 123.090378,354.160522 123.423630,321.007294   C124.087952,321.007019 124.467560,321.007538 124.893768,321.474182   C124.957390,355.262695 125.025513,388.585175 124.921684,421.907166   C124.909760,425.733978 125.900948,427.162994 129.959229,427.089874   C142.950790,426.855682 155.949295,427.013184 168.945053,426.989777   C170.014938,426.987854 171.084412,426.761322 172.455032,426.604767   C171.832092,425.091492 171.397018,424.034546 171.305603,423.018341   C173.592255,425.267181 175.629044,427.400574 177.458740,429.698853   C181.285431,434.505676 185.254486,439.230042 188.678421,444.315918   C191.028046,447.806030 194.014114,448.052032 197.666763,448.047424   C253.304993,447.977539 308.943359,448.000305 364.581665,448.001190   C383.405396,448.001495 402.229248,448.024506 421.052734,447.957245   C422.605804,447.951691 424.828369,447.871552 425.601166,446.910461   C431.201782,439.945374 437.187683,433.152100 441.764648,425.531464   C450.472260,411.033234 456.546051,395.486755 457.080994,378.191406   C457.213898,373.894592 455.629364,372.932617 451.618805,372.936279   C355.834595,373.024353 260.050201,373.031342 164.266113,372.890747   C159.507248,372.883789 158.631241,374.715179 159.012772,378.784912   C160.126434,390.664490 163.243515,401.984467 167.920074,412.931519   C168.883865,415.187653 169.327499,417.665955 169.702545,419.877838   C160.968079,404.734070 156.140289,388.888733 157.115860,371.720459   C159.188614,371.053864 160.579208,370.606659 162.373901,370.265198   C163.395782,370.567963 164.013718,370.937378 164.631332,370.936798   C184.000122,370.919189 203.368881,370.865509 223.103180,370.833252   C223.712372,370.838898 223.956055,370.828552 224.654816,370.866211   C233.404724,370.888519 241.699570,370.862762 250.460327,370.894012   C263.925781,370.927521 276.925354,370.904053 290.396973,370.926025   C304.103638,370.980103 317.338379,371.023590 330.572479,370.950287   C332.111725,370.941772 333.647400,370.286774 335.549164,370.117218   C342.512512,370.245850 349.111420,370.188782 356.031067,370.429901   C367.903961,370.766876 379.456085,370.805664 391.472443,370.904388   C405.943268,370.935760 419.949890,370.907196 434.426819,370.911743   C442.624023,370.982025 450.350983,371.019196 458.013611,371.438477   C458.564758,373.653809 459.659973,375.477661 459.696045,377.322174   C459.771790,381.197693 459.291229,385.084106 458.820374,389.285156   C454.310974,402.018585 450.020264,414.432892 445.671875,427.014221   C458.105225,427.014221 471.067871,426.869476 484.023895,427.099884   C488.065033,427.171722 489.108673,425.759705 489.060608,421.924286   C488.881195,407.618317 488.996368,393.308655 489.203644,378.790100   C489.774078,378.511108 490.141876,378.442383 490.650085,378.875061   C490.864624,393.786621 491.000092,408.197021 490.963867,422.606964   C490.956146,425.673767 491.717377,427.200226 495.121735,427.066925   C501.076691,426.833679 507.044006,426.916565 513.370239,426.910217   C514.465210,427.009155 515.196167,427.064880 515.942322,427.414520   C515.947266,428.100555 515.936890,428.492676 515.463745,428.918762   C507.645447,428.975922 500.290009,428.999084 492.934601,429.022278  z"/>
<path fill="#FFCA02" opacity="1.000000" stroke="none" d=" M394.858276,474.537537   C386.528107,474.894623 378.051392,475.006592 369.574707,475.007324   C319.027374,475.011780 268.480042,474.990540 217.467499,474.911346   C220.812241,470.153839 224.622208,465.462952 228.811707,460.304718   C232.781982,464.797668 236.320801,468.802368 240.013672,472.981415   C243.568146,468.915344 247.084930,464.892365 250.928726,460.495331   C254.617004,464.575806 258.007477,468.326813 261.928955,472.665283   C265.700500,468.571716 269.207916,464.764832 273.067230,460.576050   C276.797729,464.808228 280.331909,468.817627 284.011993,472.992584   C287.578674,468.910278 291.094452,464.886200 294.965424,460.455566   C298.806976,464.814941 302.340698,468.825043 306.010406,472.989471   C309.590424,468.895050 313.108521,464.871460 316.973724,460.450897   C320.734467,464.724304 324.172211,468.630737 327.859467,472.820679   C331.426086,468.914490 335.072021,464.921448 339.062439,460.551147   C342.815887,464.818848 346.345795,468.832306 350.005096,472.992950   C353.595123,468.889893 357.114044,464.868134 360.935699,460.500366   C364.646271,464.602509 368.038422,468.352631 371.939331,472.665192   C375.734344,468.545929 379.242676,464.737823 383.176971,460.467346   C387.178864,465.246002 390.945312,469.743500 394.858276,474.537537  z"/>
<path fill="#FEFDF4" opacity="1.000000" stroke="none" d=" M492.956879,429.485535   C500.290009,428.999084 507.645447,428.975922 515.887573,428.955933   C518.186401,429.009338 519.598511,429.059631 521.010559,429.109924   C521.039673,434.949982 519.093506,441.953735 528.849121,442.494812   C517.154053,444.235962 505.307678,443.032135 492.979156,443.037231   C492.979156,438.521057 492.979156,434.234955 492.956879,429.485535  z"/>
<path fill="#FEFDF3" opacity="1.000000" stroke="none" d=" M102.066795,428.896362   C109.408676,428.933838 116.750557,428.971313 124.563095,429.011566   C125.033745,433.492065 125.033745,437.969818 125.033745,443.002869   C120.364876,443.002869 115.993019,442.907745 111.627129,443.028442   C106.849419,443.160461 102.077232,443.491882 97.134338,443.421722   C96.976036,438.746857 96.986031,434.386627 97.416031,429.535156   C99.246277,428.994690 100.656540,428.945526 102.066795,428.896362  z"/>
<path fill="#FBFAF" opacity="1.000000" stroke="none" d=" M48.995174,426.966034   C48.663399,422.349487 48.054657,417.733582 48.043926,413.116302   C47.962463,378.067993 47.998051,343.019409 48.461014,307.490479   C53.299995,306.983215 57.675114,306.956390 62.515381,306.948486   C74.648193,307.009979 86.315857,307.052582 97.911880,307.443420   C96.324707,308.868866 94.955688,310.425934 93.268532,310.941071   C85.542473,313.299988 77.887917,316.264465 69.516541,315.114227   C68.852821,315.023041 68.091469,315.642487 66.946526,316.104889   C67.731972,317.170837 68.227257,318.484497 68.796204,318.517212   C75.413971,318.897797 75.039841,323.505890 75.030022,328.185364   C74.969978,356.800995 75.041748,385.416901 74.954971,414.032410   C74.941956,418.323914 74.327019,422.613586 73.531937,426.928101   C69.401199,426.996918 65.729057,427.041779 61.588821,427.060089   C57.078880,427.011017 53.037025,426.988525 48.995174,426.966034  z"/>
<path fill="#FBFAFF" opacity="1.000000" stroke="none" d=" M49.994411,182.962830   C49.329556,177.721558 48.115292,172.483047 48.088886,167.238571   C47.915558,132.814423 47.998661,98.388992 48.465019,63.483841   C54.302235,62.977955 59.672497,62.952206 65.500031,62.948242   C69.632149,63.015808 73.306984,63.061588 76.902618,63.474365   C76.215622,66.535591 75.089188,69.227867 75.079025,71.924347   C74.956787,104.339600 75.035133,136.755554 74.960670,169.171097   C74.949837,173.886871 73.616287,178.716812 76.520142,182.928268   C71.406097,183.024628 66.756073,183.095688 61.636925,183.117935   C57.443333,183.033707 53.718872,182.998276 49.994411,182.962830  z"/>
<path fill="#B5BDC9" opacity="1.000000" stroke="none" d=" M124.847168,321.008026   C124.467560,321.007538 124.087952,321.007019 123.374176,320.543030   C123.022697,317.252686 122.830345,314.413177 123.033005,311.602203   C123.278801,308.193085 122.095352,306.821381 118.529350,306.955933   C113.052177,307.162537 107.558434,306.929718 102.059570,306.590088   C102.055573,305.906189 102.063713,305.515533 102.071854,305.124908   C107.565826,305.078613 113.062698,304.907318 118.552597,305.035309   C121.600601,305.106323 123.062424,304.382141 123.053673,300.913940   C122.959579,263.612610 122.972366,226.310883 123.043427,189.009445   C123.049194,185.980133 122.007851,184.871521 118.981377,184.958694   C113.657722,185.112091 108.325592,184.971680 102.520355,184.621078   C102.051682,183.895020 102.059669,183.502197 102.528809,183.071228   C109.443451,183.033112 115.896927,183.033112 122.861618,183.033112   C122.861618,180.898758 122.861618,179.454025 122.934540,177.755356   C123.058670,177.332932 123.109879,177.164413 123.161095,176.995911   C123.534683,176.996140 123.908279,176.996368 124.607834,177.428955   C124.370491,182.061829 126.303627,183.107315 130.340897,183.091446   C168.535553,182.941437 206.730972,182.986176 245.287720,182.979309   C246.130951,182.978241 246.612610,182.972672 247.414108,182.987671   C248.157684,183.060654 248.581436,183.113083 249.004395,183.444168   C249.004547,184.094055 249.005463,184.465286 248.685318,184.882996   C247.932892,184.961578 247.501541,184.993683 246.710083,185.021378   C245.869888,185.022186 245.389786,185.027420 244.446777,185.022308   C206.176910,185.008652 168.369644,185.072113 130.563354,184.910660   C126.236481,184.892181 124.877945,185.983673 124.900040,190.466431   C125.088036,228.605545 125.027290,266.745880 125.032364,305.253845   C125.026848,306.112793 125.030045,306.603729 125.021324,307.553284   C124.955330,312.343933 124.901245,316.675995 124.847168,321.008026  z"/>
<path fill="#D3D4D8" opacity="1.000000" stroke="none" d=" M62.056915,427.086609   C65.729057,427.041779 69.401199,426.996918 74.000595,426.962585   C83.979393,427.030670 93.030937,427.088226 102.082489,427.145782   C102.069038,427.535217 102.055595,427.924622 102.054474,428.605225   C100.656540,428.945526 99.246277,428.994690 97.414536,429.076569   C85.653870,429.058105 74.314697,429.006958 62.499527,428.633728   C62.034660,427.903320 62.045788,427.494965 62.056915,427.086609  z"/>
<path fill="#D3D4D8" opacity="1.000000" stroke="none" d=" M102.067650,183.109344   C102.059669,183.502197 102.051682,183.895020 102.057823,184.581436   C89.040627,184.904724 76.009300,184.934433 62.507801,184.649170   C62.060432,183.945038 62.083241,183.555878 62.106052,183.166733   C66.756073,183.095688 71.406097,183.024628 76.899506,182.957626   C78.501953,182.942108 79.261032,182.922531 80.484062,182.932129   C85.959808,182.942566 90.971603,182.923828 96.416290,182.931229   C98.588676,183.008026 100.328163,183.058685 102.067650,183.109344  z"/>
<path fill="#D3D4D8" opacity="1.000000" stroke="none" d=" M101.598236,305.087799   C102.063713,305.515533 102.055573,305.906189 101.650787,306.623779   C100.163933,306.998871 99.073723,307.047028 97.983513,307.095184   C86.315857,307.052582 74.648193,307.009979 62.502850,306.640930   C62.033600,305.903564 62.042034,305.492706 62.050468,305.081848   C75.075188,305.071442 88.099907,305.061066 101.598236,305.087799  z"/>
<path fill="#D3D4D8" opacity="1.000000" stroke="none" d=" M76.981827,63.107368   C73.306984,63.061588 69.632149,63.015808 65.489410,62.642017   C65.029785,61.905010 65.038063,61.496014 65.046333,61.087017   C75.409348,61.080692 85.772369,61.074364 96.604202,61.373508   C97.083878,62.035915 97.094734,62.392853 96.761909,62.834854   C95.952202,62.982288 95.486160,63.044659 94.564766,63.078766   C91.065300,63.069294 88.021194,63.088089 84.552841,63.077236   C82.426987,63.067329 80.725380,63.087070 78.683777,63.085175   C77.889793,63.078152 77.435814,63.092762 76.981827,63.107368  z"/>
<path fill="#DFE8EF" opacity="1.000000" stroke="none" d=" M64.573883,61.061710   C65.038063,61.496014 65.029785,61.905010 65.032135,62.620232   C59.672497,62.952206 54.302235,62.977955 48.464066,63.017097   C43.336811,63.030491 38.677475,63.030491 34.018135,63.030491   C34.014797,62.365795 34.011459,61.701099 34.008121,61.036404   C44.039223,61.036404 54.070328,61.036404 64.573883,61.061710  z"/>
<path fill="#DFE8EF" opacity="1.000000" stroke="none" d=" M61.636925,183.117935   C62.083241,183.555878 62.060432,183.945038 62.042629,184.626770   C52.707779,184.919373 43.367920,184.919373 34.028065,184.919373   C34.000111,184.275558 33.972157,183.631729 33.944206,182.987915   C38.982941,182.987915 44.021675,182.987915 49.527412,182.975372   C53.718872,182.998276 57.443333,183.033707 61.636925,183.117935  z"/>
<path fill="#DFE8EF" opacity="1.000000" stroke="none" d=" M61.588821,427.060059   C62.045788,427.494965 62.034660,427.903320 62.033905,428.617493   C52.774784,428.923340 43.505287,428.923340 34.235790,428.923340   C34.225941,428.278687 34.216095,427.634033 34.206245,426.989380   C38.825798,426.989380 43.445351,426.989380 48.530037,426.977722   C53.037025,426.988525 57.078880,427.011017 61.588821,427.060059  z"/>
<path fill="#DFE8EF" opacity="1.000000" stroke="none" d=" M61.577522,305.058655   C62.042034,305.492706 62.033600,305.903564 62.037697,306.621979   C57.675114,306.956390 53.299995,306.983215 48.459641,307.024231   C43.411148,307.038422 38.827892,307.038422 34.244633,307.038422   C34.226254,306.370758 34.207874,305.703094 34.189495,305.035431   C43.161190,305.035431 52.132889,305.035431 61.577522,305.058655  z"/>
<path fill="#B5BDC9" opacity="1.000000" stroke="none" d=" M97.105583,62.749790   C97.094734,62.392853 97.083878,62.035915 97.076393,61.412254   C104.743279,61.119442 112.406799,61.093353 120.537567,61.113274   C120.994263,61.523731 120.983719,61.888176 120.983269,62.615547   C120.993370,62.978477 121.051125,63.152695 120.581085,63.093414   C112.442551,62.939354 104.774071,62.844574 97.105583,62.749790  z"/>
<path fill="#F9FAFE" opacity="1.000000" stroke="none" d=" M515.927063,427.120544   C515.196167,427.064880 514.465210,427.009155 513.285217,426.512573   C512.557434,423.788635 512.012634,421.502075 512.042908,419.223175   C512.249084,403.696472 512.576355,388.171356 513.135315,372.377777   C528.921753,368.531219 544.400696,364.780182 559.974182,361.474182   C564.946716,360.418610 566.897705,357.067169 566.634949,353.114929   C566.375061,349.204651 564.769226,345.094910 562.740295,341.673676   C560.774292,338.358582 557.210022,337.580078 553.192749,338.947723   C544.851074,341.787567 536.402588,344.313477 527.876831,346.720520   C527.503723,345.981750 527.251831,345.490875 527.347839,344.871155   C529.351685,340.931580 531.031982,337.131012 532.637573,333.299164   C532.879028,332.722900 532.835693,331.998108 532.814819,331.345551   C532.556519,323.260773 532.278137,315.176605 532.472534,307.067535   C540.607910,307.002960 548.275513,306.963165 556.415894,306.944122   C562.260681,306.984253 567.632751,307.003632 573.004883,307.023010   C573.010071,313.331055 571.793091,319.944885 573.278381,325.882721   C576.247253,337.751709 574.374817,349.604675 574.887756,361.438446   C575.002441,364.084686 573.647217,366.780365 573.072021,369.475342   C572.630493,371.543762 572.056885,373.645416 572.046631,375.734711   C571.964600,392.500671 572.002441,409.267242 571.537964,426.513702   C566.010986,427.051880 560.949829,427.109955 555.428101,427.132843   C541.954102,427.105286 528.940613,427.112915 515.927063,427.120544  z"/>
<path fill="#FBFAFF" opacity="1.000000" stroke="none" d=" M557.009888,63.081764   C559.378418,63.721107 561.731750,64.837013 564.118225,64.913124   C572.250427,65.172455 572.998047,65.758987 572.998840,73.762070   C573.002380,109.851074 573.001770,145.940079 572.535889,182.509689   C566.677063,183.048889 561.284973,183.107483 555.442871,183.130798   C551.664185,183.030960 548.335510,182.966400 545.004761,182.443176   C545.004272,142.359711 545.005920,102.734894 545.463135,63.083977   C549.256104,63.014252 552.593628,62.970627 556.200684,62.966869   C556.650024,63.031746 556.829956,63.056755 557.009888,63.081764  z"/>
<path fill="#B5BDC9" opacity="1.000000" stroke="none" d=" M489.154968,192.996704   C489.530273,192.997070 489.905579,192.997437 490.561707,192.996796   C490.895325,227.990646 490.948883,262.985474 491.000336,297.980286   C491.010620,304.990448 491.006897,304.985718 498.012146,304.997711   C503.678101,305.007385 509.344055,305.030182 515.486206,305.379333   C515.953979,306.101959 515.945679,306.492462 515.572388,306.923767   C514.474731,307.026276 513.742065,307.087982 512.542053,307.107178   C506.609283,307.046112 501.133728,307.223999 495.682007,306.941833   C491.867432,306.744446 490.895844,308.258118 490.937500,311.853699   C491.102417,326.095703 490.971710,340.340912 491.061798,354.584229   C491.071533,356.119934 491.804321,357.651001 492.014343,359.476196   C490.916351,359.890289 490.005676,360.012360 489.065063,359.658203   C489.022491,343.684296 488.881989,328.184998 489.081940,312.690094   C489.135956,308.503662 488.224915,306.880280 483.606476,306.903839   C447.112610,307.089905 410.617249,307.053040 374.122803,306.939667   C370.314819,306.927795 368.841919,307.885742 368.923615,311.965179   C369.183838,324.958221 369.062164,337.958923 368.890564,351.171143   C368.167023,351.577393 367.640900,351.769196 367.075500,351.496277   C367.020172,337.866364 366.908905,324.700165 367.052307,311.536743   C367.089996,308.077850 366.006500,306.867371 362.495575,306.938629   C353.333801,307.124664 344.165405,306.983917 334.891052,306.724243   C334.525787,305.997101 334.269104,305.519165 334.480164,305.029388   C343.773224,305.010986 352.606140,304.786133 361.420746,305.090637   C365.779724,305.241272 367.110779,303.959412 367.089905,299.500885   C366.911530,261.369415 366.973450,223.236801 366.970642,184.733978   C366.971710,183.869995 366.965668,183.376556 366.968445,182.421860   C366.981140,167.966766 366.987915,153.972916 366.987762,139.979080   C366.987671,133.016006 366.981934,133.023682 359.932831,133.013046   C325.616913,132.961304 291.301025,132.905136 256.987061,132.562897   C256.988098,131.891785 256.987152,131.508286 257.454254,131.078934   C298.953064,131.072189 339.983856,131.111313 381.012207,131.434662   C381.011444,132.097214 381.013062,132.475555 380.553833,132.901733   C377.595520,132.974548 375.095154,133.083969 372.601227,133.000778   C370.104431,132.917480 368.979401,133.873535 368.990326,136.485046   C369.050201,150.806152 368.933960,165.129044 369.168549,179.446548   C369.188171,180.644608 371.252747,182.674179 372.543304,182.826599   C376.653595,183.312042 380.847107,183.093079 385.008453,183.146240   C385.007843,183.523575 385.007233,183.900925 384.541260,184.613373   C381.076385,184.966522 378.043732,185.274689 375.084900,184.936584   C370.306763,184.390549 368.874207,186.080536 368.901245,190.961197   C369.100769,226.957794 369.095764,262.956482 368.900085,298.953125   C368.874084,303.736420 370.139099,305.130005 374.990356,305.102783   C410.653625,304.902771 446.318512,304.995789 481.982910,304.994110   C488.991974,304.993805 488.988251,304.989166 488.998474,297.983398   C489.049500,262.987823 489.102570,227.992264 489.154968,192.996704  z"/>
<path fill="#D3D4D8" opacity="1.000000" stroke="none" d=" M515.937378,306.882935   C515.945679,306.492462 515.953979,306.101959 515.949219,305.419678   C528.946960,305.119934 541.957886,305.112061 555.452393,305.432495   C555.938354,306.148285 555.940735,306.535828 555.943176,306.923340   C548.275513,306.963165 540.607910,307.002960 532.005859,307.036438   C526.026794,306.981049 520.982056,306.932007 515.937378,306.882935  z"/>
<path fill="#D3D4D8" opacity="1.000000" stroke="none" d=" M515.942322,427.414490   C528.940613,427.112915 541.954102,427.105286 555.452759,427.422119   C555.941772,428.136322 555.945618,428.526031 555.949524,428.915771   C544.614319,428.956909 533.279175,428.998047 521.477295,429.074554   C519.598511,429.059631 518.186401,429.009338 516.350464,428.921936   C515.936890,428.492676 515.947266,428.100555 515.942322,427.414490  z"/>
<path fill="#D3D4D8" opacity="1.000000" stroke="none" d=" M545.006897,182.901840   C548.335510,182.966400 551.664185,183.030960 555.466064,183.420410   C555.942810,184.135315 555.946289,184.525345 555.949768,184.915344   C542.923035,184.924988 529.896240,184.934631 516.395142,184.903900   C515.929260,184.477829 515.937683,184.092102 516.409302,183.379425   C526.250610,183.002243 535.628784,182.952042 545.006897,182.901840  z"/>
<path fill="#D3D4D8" opacity="1.000000" stroke="none" d=" M555.931152,62.926998   C552.593628,62.970627 549.256104,63.014252 544.994568,63.049625   C536.352295,62.977032 528.633972,62.912689 520.934692,62.575787   C520.970093,61.939571 520.986389,61.575916 520.987427,61.112732   C520.972107,61.013203 520.967896,60.811836 520.967896,60.811836   C531.994812,60.887054 543.021729,60.962273 554.640991,61.279263   C555.466003,61.989689 555.698608,62.458344 555.931152,62.926998  z"/>
<path fill="#DFE8EF" opacity="1.000000" stroke="none" d=" M556.200684,62.966866   C555.698608,62.458344 555.466003,61.989689 555.108521,61.290619   C564.651794,61.060200 574.319946,61.060200 583.988098,61.060200   C584.000244,61.719185 584.012390,62.378170 584.024536,63.037155   C575.331177,63.037155 566.637817,63.037155 557.477173,63.059460   C556.829956,63.056755 556.650024,63.031746 556.200684,62.966866  z"/>
<path fill="#DFE8EF" opacity="1.000000" stroke="none" d=" M556.415894,306.944092   C555.940735,306.535828 555.938354,306.148285 555.912476,305.473267   C565.244873,305.185760 574.600830,305.185760 583.956787,305.185760   C583.975220,305.792114 583.993591,306.398438 584.011963,307.004791   C580.648010,307.004791 577.284058,307.004791 573.462524,307.013916   C567.632751,307.003632 562.260681,306.984253 556.415894,306.944092  z"/>
<path fill="#DFE8EF" opacity="1.000000" stroke="none" d=" M556.422485,428.939301   C555.945618,428.526031 555.941772,428.136322 555.913208,427.457306   C560.949829,427.109955 566.010986,427.051880 571.539917,426.980286   C575.937805,426.966736 579.867981,426.966736 583.798218,426.966736   C583.788879,427.632111 583.779602,428.297455 583.770264,428.962830   C574.811951,428.962830 565.853699,428.962830 556.422485,428.939301  z"/>
<path fill="#DFE8EF" opacity="1.000000" stroke="none" d=" M556.422668,184.939026   C555.946289,184.525345 555.942810,184.135315 555.916138,183.455688   C561.284973,183.107483 566.677063,183.048889 572.537231,182.975937   C576.613159,182.961578 580.221008,182.961578 583.828857,182.961578   C583.809387,183.628616 583.789917,184.295654 583.770447,184.962692   C574.812195,184.962692 565.853882,184.962692 556.422668,184.939026  z"/>
<path fill="#FEFDF3" opacity="1.000000" stroke="none" d=" M492.962769,60.899139   C494.106476,60.340187 495.266876,59.119446 496.452332,59.094608   C504.324127,58.929665 512.201233,59.020851 520.540649,59.100651   C520.999451,59.537712 520.994324,59.902859 520.978516,60.539921   C520.967896,60.811836 520.972107,61.013203 520.521240,61.054417   C511.117401,61.008160 502.164429,60.920689 493.211456,60.833214   C493.211456,60.833214 492.991089,60.790543 492.962769,60.899139  z"/>
<path fill="#FFFFFF" opacity="1.000000" stroke="none" d=" M489.104858,192.551834   C489.102570,227.992264 489.049500,262.987823 488.998474,297.983398   C488.988251,304.989166 488.991974,304.993805 481.982910,304.994110   C446.318512,304.995789 410.653625,304.902771 374.990356,305.102783   C370.139099,305.130005 368.874084,303.736420 368.900085,298.953125   C369.095764,262.956482 369.100769,226.957794 368.901245,190.961197   C368.874207,186.080536 370.306763,184.390549 375.084900,184.936584   C378.043732,185.274689 381.076385,184.966522 384.541626,184.896378   C417.222717,184.894638 449.438141,184.952957 481.653534,184.990158   C490.503998,185.000381 488.732025,184.893784 489.104858,192.551834  z"/>
<path fill="#F1F6FA" opacity="1.000000" stroke="none" d=" M385.474487,183.099640   C380.847107,183.093079 376.653595,183.312042 372.543304,182.826599   C371.252747,182.674179 369.188171,180.644608 369.168549,179.446548   C368.933960,165.129044 369.050201,150.806152 368.990326,136.485046   C368.979401,133.873535 370.104431,132.917480 372.601227,133.000778   C375.095154,133.083969 377.595520,132.974548 381.019653,132.945923   C402.569305,132.965576 423.193542,132.881607 443.814545,133.100403   C448.066742,133.145523 449.258728,131.713989 449.068207,127.656738   C448.772095,121.350540 448.987915,115.020302 448.987396,108.700249   C448.986572,98.995567 448.986786,98.995560 458.801575,98.995918   C469.067474,98.996284 468.818115,98.989128 469.113861,88.693710   C469.249603,83.969742 467.629364,82.884033 463.163361,82.910210   C433.559937,83.083694 403.954865,83.028915 374.350922,82.904922   C372.520813,82.897263 370.695862,81.669800 368.868469,81.009872   C368.917297,76.513412 369.155640,72.008438 368.954254,67.523209   C368.796631,64.012619 370.101837,62.898033 373.565521,62.940598   C386.225037,63.096157 398.887604,63.000397 411.549042,63.000275   C435.539093,63.000042 459.530182,63.113007 483.518341,62.900303   C488.010590,62.860466 489.108917,64.279243 489.090607,68.594772   C488.936462,104.912415 488.925873,141.231400 489.106354,177.548798   C489.128815,182.068420 487.685913,183.116211 483.399078,183.096909   C450.913513,182.950623 418.426849,183.038315 385.474487,183.099640  z"/>
<path fill="#F1F6FA" opacity="1.000000" stroke="none" d=" M244.926163,182.974792   C206.730972,182.986176 168.535553,182.941437 130.340897,183.091446   C126.303627,183.107315 124.370491,182.061829 124.888031,177.428345   C124.894119,141.401291 124.946999,105.807213 124.996986,70.213135   C125.007126,62.992729 125.002068,62.984619 132.295547,62.983658   C167.725342,62.978977 203.155121,62.975761 238.584915,62.980347   C245.005585,62.981178 245.001083,62.999115 245.019135,69.596703   C245.028671,73.089493 245.056976,76.582237 244.965759,80.925278   C243.013229,82.181168 241.172699,82.935074 239.330093,82.940125   C211.701767,83.015930 184.073196,82.993073 156.444672,82.993324   C143.924728,82.993446 144.000336,82.987640 144.949982,95.573677   C145.146881,98.183250 146.139328,99.148315 148.609039,99.006676   C149.935944,98.930580 151.271179,99.002159 152.602646,99.002686   C164.991821,99.007538 164.991806,99.007256 164.991821,111.637749   C164.991821,116.297981 164.989853,120.958214 164.992477,125.618446   C164.996658,132.998611 164.997971,133.002335 172.147095,133.002335   C194.782501,133.002304 217.418015,133.030090 240.053207,132.959854   C243.017975,132.950653 245.496109,133.054977 245.123352,137.456299   C245.024277,152.940857 244.975220,167.957825 244.926163,182.974792  z"/>
<path fill="#F8F9FD" opacity="1.000000" stroke="none" d=" M520.915710,62.848351   C528.633972,62.912689 536.352295,62.977032 544.539062,63.075726   C545.005920,102.734894 545.004272,142.359711 545.004761,182.443176   C535.628784,182.952042 526.250610,183.002243 516.398071,183.089752   C514.879700,183.066345 513.835815,183.005630 512.405273,182.486694   C512.345825,177.238998 512.941895,172.450333 512.956055,167.659958   C513.043518,138.057220 513.000000,108.454086 513.000000,78.851082   C513.000000,65.039276 512.998901,65.115517 499.176025,64.917252   C497.130280,64.887917 495.100494,63.745178 493.063324,63.117565   C493.063324,63.117569 492.999054,62.965775 493.438873,62.934502   C502.891022,62.884937 511.903381,62.866646 520.915710,62.848351  z"/>
<path fill="#EFF4F9" opacity="1.000000" stroke="none" d=" M277.050323,75.609245   C277.036957,53.020267 277.089996,30.430859 276.942871,7.842753   C276.919189,4.212164 277.922485,2.860637 281.715363,2.936204   C293.172729,3.164476 304.636780,3.056105 316.557739,3.579421   C317.011871,26.998220 317.067444,49.916885 316.944092,72.834587   C316.922333,76.879784 316.875153,80.631119 320.550812,82.886948   C307.349487,82.954330 294.614471,83.068344 281.883942,82.879654   C280.263519,82.855621 278.666504,81.249947 277.002380,80.044647   C276.980804,78.344604 277.015564,76.976929 277.050323,75.609245  z"/>
<path fill="#F2F6FA" opacity="1.000000" stroke="none" d=" M492.663300,63.182529   C495.100494,63.745178 497.130280,64.887917 499.176025,64.917252   C512.998901,65.115517 513.000000,65.039276 513.000000,78.851082   C513.000000,108.454086 513.043518,138.057220 512.956055,167.659958   C512.941895,172.450333 512.345825,177.238998 512.014893,182.443024   C506.523682,182.906433 501.029694,182.807800 495.551544,183.057755   C492.100830,183.215195 490.874908,182.023666 490.931580,178.506531   C491.108429,167.530487 490.998352,156.549789 490.998535,145.570908   C490.998962,119.953506 490.973114,94.336014 491.053375,68.718864   C491.059082,66.893837 491.841858,65.071228 492.663300,63.182529  z"/>
<path fill="#B5B9BE" opacity="1.000000" stroke="none" d=" M277.058655,80.377007   C278.666504,81.249947 280.263519,82.855621 281.883942,82.879654   C294.614471,83.068344 307.349487,82.954330 321.014099,82.938538   C325.722565,82.960258 329.511261,83.147957 333.271515,82.901855   C334.602020,82.814781 335.863251,81.669640 337.156128,81.007545   C337.531403,81.006989 337.906647,81.006439 338.703094,81.399254   C339.620300,82.154907 340.112762,82.827415 340.612885,82.833153   C348.656250,82.925438 356.701324,82.988449 364.743408,82.873871   C365.552765,82.862343 366.345184,81.659424 367.145447,81.009415   C367.528717,81.008316 367.911957,81.007217 368.581848,81.007996   C370.695862,81.669800 372.520813,82.897263 374.350922,82.904922   C403.954865,83.028915 433.559937,83.083694 463.163361,82.910210   C467.629364,82.884033 469.249603,83.969742 469.113861,88.693710   C468.818115,98.989128 469.067474,98.996284 458.801575,98.995918   C448.986786,98.995560 448.986572,98.995567 448.987396,108.700249   C448.987915,115.020302 448.772095,121.350540 449.068207,127.656738   C449.258728,131.713989 448.066742,133.145523 443.814545,133.100403   C423.193542,132.881607 402.569305,132.965576 381.480438,132.898071   C381.013062,132.475555 381.011444,132.097214 381.478149,131.391846   C390.306732,130.996323 398.667023,130.927856 407.491699,130.909149   C419.454895,130.969666 430.955292,130.877533 442.451569,131.054230   C445.882874,131.106949 447.170258,130.074173 447.072754,126.529449   C446.857422,118.702591 446.906250,110.864166 447.046356,103.034019   C447.100037,100.033470 446.088715,98.909164 443.021545,98.953125   C431.026581,99.125015 419.028870,99.106453 406.563660,99.111969   C339.432526,99.042786 272.769958,99.019722 206.107391,98.998367   C194.774704,98.994736 183.439758,99.126015 172.110565,98.927391   C168.300980,98.860596 166.734329,99.856140 166.914215,103.950630   C167.221115,110.936737 167.284912,117.961975 166.898987,124.940254   C166.633530,129.740234 168.145096,131.145676 172.995911,131.114044   C200.991455,130.931442 228.989212,131.085052 256.986206,131.124786   C256.987152,131.508286 256.988098,131.891785 256.538269,132.612152   C254.475540,132.967346 252.851028,133.122192 251.254425,132.974716   C248.229660,132.695343 246.653198,133.825256 246.567627,136.991867   C245.916840,136.991791 245.545105,136.990250 245.173370,136.988724   C245.496109,133.054977 243.017975,132.950653 240.053207,132.959854   C217.418015,133.030090 194.782501,133.002304 172.147095,133.002335   C164.997971,133.002335 164.996658,132.998611 164.992477,125.618446   C164.989853,120.958214 164.991821,116.297981 164.991821,111.637749   C164.991806,99.007256 164.991821,99.007538 152.602646,99.002686   C151.271179,99.002159 149.935944,98.930580 148.609039,99.006676   C146.139328,99.148315 145.146881,98.183250 144.949982,95.573677   C144.000336,82.987640 143.924728,82.993446 156.444672,82.993324   C184.073196,82.993073 211.701767,83.015930 239.330093,82.940125   C241.172699,82.935074 243.013229,82.181168 245.007629,81.392242   C245.531067,81.008232 245.901611,81.007545 246.695404,81.398949   C248.617905,82.191994 250.109589,82.901978 251.617722,82.938835   C257.264587,83.076843 262.936829,83.276901 268.558685,82.877907   C271.436676,82.673645 274.228119,81.249710 277.058655,80.377007  M435.087677,85.048225   C340.666229,85.031822 246.244797,85.015366 151.823364,85.000267   C151.157364,85.000160 150.310562,84.762909 149.861694,85.080078   C148.817657,85.817802 147.335953,86.705650 147.135544,87.745438   C145.598633,95.719398 146.734985,97.002014 154.766617,97.001900   C237.864380,97.000671 320.962128,97.003204 404.059906,96.991493   C414.382812,96.990036 424.705688,96.912025 435.957764,96.960136   C443.790314,96.974327 451.622864,96.995430 459.455414,97.000755   C467.340912,97.006104 467.211395,97.001755 467.056061,89.030304   C466.997772,86.040161 466.080780,84.890160 463.014679,84.953308   C454.019867,85.138588 445.020447,85.100899 435.087677,85.048225  z"/>
<path fill="#FEFFFF" opacity="1.000000" stroke="none" d=" M337.105103,80.540588   C335.863251,81.669640 334.602020,82.814781 333.271515,82.901855   C329.511261,83.147957 325.722565,82.960258 321.481812,82.891891   C316.875153,80.631119 316.922333,76.879784 316.944092,72.834587   C317.067444,49.916885 317.011871,26.998220 317.026489,3.625800   C322.033264,3.121416 327.047272,3.302488 332.023132,2.948395   C336.082184,2.659546 337.076508,4.237402 337.052704,8.081681   C336.910370,31.078587 336.993683,54.076893 337.004517,77.074730   C337.005005,78.074371 337.036865,79.073990 337.105103,80.540588  z"/>
<path fill="#F2F6FA" opacity="1.000000" stroke="none" d=" M123.110733,176.529694   C123.109879,177.164413 123.058670,177.332932 122.501778,177.752686   C110.887192,177.983597 110.000443,177.110382 110.000221,166.175293   C109.999596,135.239426 109.974419,104.303505 110.043549,73.367790   C110.049782,70.578033 110.667290,67.789635 111.454910,65.000519   C114.938766,64.999359 117.968620,64.998306 121.307907,64.997269   C122.029327,64.995117 122.441315,64.992958 122.853302,64.990791   C122.902992,97.864418 122.951302,130.738037 123.004097,163.611664   C123.010765,167.762283 123.041031,171.912888 123.110733,176.529694  z"/>
<path fill="#FEFFFF" opacity="1.000000" stroke="none" d=" M277.002380,80.044647   C274.228119,81.249710 271.436676,82.673645 268.558685,82.877907   C262.936829,83.276901 257.264587,83.076843 251.617722,82.938835   C250.109589,82.901978 248.617905,82.191994 246.973816,81.399994   C246.882233,76.378159 247.047806,71.744934 246.947708,67.117455   C246.885132,64.224541 247.799088,62.916252 250.910553,62.988930   C257.524933,63.143421 264.149567,63.140717 270.762665,62.949162   C273.990234,62.855675 275.130310,63.984924 275.093872,67.227730   C275.063843,69.902702 275.812256,72.586426 276.633057,75.437759   C277.015564,76.976929 276.980804,78.344604 277.002380,80.044647  z"/>
<path fill="#FDFFFD" opacity="1.000000" stroke="none" d=" M367.093750,80.542809   C366.345184,81.659424 365.552765,82.862343 364.743408,82.873871   C356.701324,82.988449 348.656250,82.925438 340.612885,82.833153   C340.112762,82.827415 339.620300,82.154907 338.984558,81.400436   C338.901825,76.177315 339.042450,71.345329 338.982056,66.515862   C338.949890,63.944984 339.974304,62.954609 342.532532,62.987762   C349.531006,63.078449 356.532349,63.085037 363.530609,62.986904   C366.157837,62.950062 367.054840,64.070114 367.007874,66.578247   C366.923767,71.075775 367.020752,75.576706 367.093750,80.542809  z"/>
<path fill="#B5BDC9" opacity="1.000000" stroke="none" d=" M520.934692,62.575790   C511.903381,62.866646 502.891022,62.884937 493.405975,62.858932   C492.983704,62.373924 493.034119,61.933216 493.148010,61.162861   C502.164429,60.920689 511.117401,61.008160 520.536560,61.153946   C520.986389,61.575916 520.970093,61.939571 520.934692,62.575790  z"/>
<path fill="#F7F9FC" opacity="1.000000" stroke="none" d=" M122.848434,64.663223   C122.441315,64.992958 122.029327,64.995117 121.312088,64.689529   C121.021599,63.972088 121.036354,63.562389 121.051117,63.152695   C121.051125,63.152695 120.993370,62.978477 120.970619,62.889122   C121.579773,63.311729 122.211670,63.823692 122.848434,64.663223  z"/>
<path fill="#F0F3F6" opacity="1.000000" stroke="none" d=" M177.137787,505.031189   C177.089157,502.079559 176.733856,499.084656 177.141418,496.197449   C177.306625,495.027222 179.134613,494.091736 180.771118,493.444092   C183.374268,494.226898 185.411942,494.952118 187.450333,494.954163   C247.273178,495.013916 307.096100,494.998810 366.919006,495.005585   C372.670349,495.006256 374.310669,497.103149 372.724579,502.116394   C371.589386,505.704346 368.665985,504.983032 366.104614,504.984344   C303.115662,505.016663 240.126740,505.021454 177.137787,505.031189  z"/>
<path fill="#FDFFFD" opacity="1.000000" stroke="none" d=" M177.190979,505.429413   C240.126740,505.021454 303.115662,505.016663 366.104614,504.984344   C368.665985,504.983032 371.589386,505.704346 372.724579,502.116394   C374.310669,497.103149 372.670349,495.006256 366.919006,495.005585   C307.096100,494.998810 247.273178,495.013916 187.450333,494.954163   C185.411942,494.952118 183.374268,494.226898 181.190155,493.485382   C195.201447,493.087341 209.358826,493.006744 223.516205,493.004211   C292.312286,492.991913 361.108368,492.986969 429.904388,493.060791   C432.202423,493.063263 436.307953,493.582520 436.481384,494.466797   C437.199677,498.129639 436.810272,502.030457 436.582458,505.829224   C436.556793,506.257538 435.008087,506.792023 434.113525,506.923889   C432.808105,507.116272 431.455414,506.995850 430.122894,506.995819   C347.834106,506.994202 265.545349,506.999420 183.256592,506.939850   C181.252197,506.938385 179.248306,506.214539 177.190979,505.429413  z"/>
<path fill="#EFF4F8" opacity="1.000000" stroke="none" d=" M207.158478,489.034149   C207.123947,486.642059 207.089401,484.249939 207.547806,481.421539   C213.065353,480.323486 218.087860,479.106598 223.114883,479.087677   C264.411133,478.932281 305.708191,478.995758 347.005005,479.012909   C348.712311,479.013611 350.419556,479.212524 352.516174,479.343414   C351.898926,480.805145 351.243927,481.586578 351.325745,482.281250   C352.180847,489.540955 347.439789,489.054169 342.538452,489.046844   C297.411896,488.979492 252.285156,489.022919 207.158478,489.034149  z"/>
<path fill="#FEFFFF" opacity="1.000000" stroke="none" d=" M207.212860,489.429993   C252.285156,489.022919 297.411896,488.979492 342.538452,489.046844   C347.439789,489.054169 352.180847,489.540955 351.325745,482.281250   C351.243927,481.586578 351.898926,480.805145 352.516174,479.343414   C350.419556,479.212524 348.712311,479.013611 347.005005,479.012909   C305.708191,478.995758 264.411133,478.932281 223.114883,479.087677   C218.087860,479.106598 213.065353,480.323486 207.602661,480.976135   C206.703888,478.298096 207.513260,476.874786 210.537018,477.008514   C214.026764,477.162842 217.529556,477.011322 221.026672,477.011078   C280.645172,477.006683 340.263733,476.989532 399.882141,477.062683   C402.174744,477.065521 406.265076,477.584900 406.443695,478.478271   C407.175537,482.138306 406.868042,486.051300 406.512695,489.830688   C406.464325,490.345093 403.985138,490.955688 402.625732,490.969696   C393.300964,491.065704 383.974701,491.012054 374.648895,491.011169   C320.859009,491.006073 267.069092,491.014862 213.279297,490.948547   C211.274826,490.946075 209.271240,490.216583 207.212860,489.429993  z"/>
<path fill="#EFF4F8" opacity="1.000000" stroke="none" d=" M170.010864,420.041870   C169.327499,417.665955 168.883865,415.187653 167.920074,412.931519   C163.243515,401.984467 160.126434,390.664490 159.012772,378.784912   C158.631241,374.715179 159.507248,372.883789 164.266113,372.890747   C260.050201,373.031342 355.834595,373.024353 451.618805,372.936279   C455.629364,372.932617 457.213898,373.894592 457.080994,378.191406   C456.546051,395.486755 450.472260,411.033234 441.764648,425.531464   C437.187683,433.152100 431.201782,439.945374 425.601166,446.910461   C424.828369,447.871552 422.605804,447.951691 421.052734,447.957245   C402.229248,448.024506 383.405396,448.001495 364.581665,448.001190   C308.943359,448.000305 253.304993,447.977539 197.666763,448.047424   C194.014114,448.052032 191.028046,447.806030 188.678421,444.315918   C185.254486,439.230042 181.285431,434.505676 177.458740,429.698853   C175.629044,427.400574 173.592255,425.267181 171.094788,422.780029   C170.363800,421.681274 170.187332,420.861572 170.010864,420.041870  M203.134644,422.262604   C200.424850,411.180115 197.375900,400.165527 195.138458,388.988464   C193.890610,382.755005 192.757797,381.009705 186.388885,381.001404   C182.065826,380.995758 177.736649,381.147125 173.421432,380.963959   C169.354065,380.791321 168.554657,382.771271 169.280151,386.248901   C173.400436,405.999329 181.867432,423.600220 195.193771,438.805084   C199.246979,443.429626 206.845215,444.649353 212.880356,441.493896   C209.750580,435.319214 206.614517,429.132111 203.134644,422.262604  z"/>
<path fill="#F1F6FA" opacity="1.000000" stroke="none" d=" M169.702545,419.877838   C170.187332,420.861572 170.363800,421.681274 170.751099,422.739288   C171.397018,424.034546 171.832092,425.091492 172.455032,426.604767   C171.084412,426.761322 170.014938,426.987854 168.945053,426.989777   C155.949295,427.013184 142.950790,426.855682 129.959229,427.089874   C125.900948,427.162994 124.909760,425.733978 124.921684,421.907166   C125.025513,388.585175 124.957390,355.262695 124.893768,321.474182   C124.901245,316.675995 124.955330,312.343933 125.486092,307.519897   C129.946426,307.014923 133.930054,306.995575 137.913727,306.990021   C172.272278,306.942108 206.630844,306.896698 241.407074,306.903259   C245.475739,306.825165 245.017624,309.459534 245.019226,311.744263   C245.028610,325.127075 245.023117,338.509888 244.734390,352.137756   C234.363708,354.866821 227.164169,360.516907 224.199753,370.818176   C223.956055,370.828552 223.712372,370.838898 222.886292,370.576416   C211.837036,367.224060 202.419540,362.463501 195.094788,354.044495   C191.553116,349.973724 187.809006,346.033691 183.811676,342.415497   C177.941025,337.101715 174.879196,337.031036 168.593246,341.202454   C167.045456,341.184540 165.558746,340.784302 164.806992,341.353943   C159.986816,345.006592 157.436142,341.880280 155.516342,338.142487   C153.353973,333.932343 151.550552,329.509369 149.935287,325.054199   C148.093735,319.974976 147.262680,319.703033 142.382416,324.266235   C146.418030,330.400330 150.441681,336.747498 154.730682,342.909973   C156.228333,345.061829 157.708801,346.609711 155.679352,349.407074   C155.020782,350.314850 156.230621,352.578094 156.484894,354.726593   C153.391129,361.952576 154.094406,363.832001 161.969803,370.159454   C160.579208,370.606659 159.188614,371.053864 157.115860,371.720459   C156.140289,388.888733 160.968079,404.734070 169.702545,419.877838  z"/>
<path fill="#F1F6FA" opacity="1.000000" stroke="none" d=" M369.088013,350.956665   C369.062164,337.958923 369.183838,324.958221 368.923615,311.965179   C368.841919,307.885742 370.314819,306.927795 374.122803,306.939667   C410.617249,307.053040 447.112610,307.089905 483.606476,306.903839   C488.224915,306.880280 489.135956,308.503662 489.081940,312.690094   C488.881989,328.184998 489.022491,343.684296 488.832642,359.942322   C478.446136,364.153900 468.262024,367.605133 458.077911,371.056366   C450.350983,371.019196 442.624023,370.982025 434.317993,370.603821   C426.016357,359.478424 415.491302,357.119324 402.998474,359.811890   C392.513885,347.680023 382.675964,345.180847 369.088013,350.956665  z"/>
<path fill="#F6F8FC" opacity="1.000000" stroke="none" d=" M97.911880,307.443420   C99.073723,307.047028 100.163933,306.998871 101.662933,306.917053   C107.558434,306.929718 113.052177,307.162537 118.529350,306.955933   C122.095352,306.821381 123.278801,308.193085 123.033005,311.602203   C122.830345,314.413177 123.022697,317.252686 123.089462,320.543823   C123.090378,354.160522 123.042007,387.312927 122.993118,420.465363   C122.983498,426.989258 122.982567,426.984070 116.496956,427.004395   C111.998917,427.018494 107.500931,427.049347 102.542709,427.109253   C93.030937,427.088226 83.979393,427.030670 74.459183,426.938599   C74.327019,422.613586 74.941956,418.323914 74.954971,414.032410   C75.041748,385.416901 74.969978,356.800995 75.030022,328.185364   C75.039841,323.505890 75.413971,318.897797 68.796204,318.517212   C68.227257,318.484497 67.731972,317.170837 66.946526,316.104889   C68.091469,315.642487 68.852821,315.023041 69.516541,315.114227   C77.887917,316.264465 85.542473,313.299988 93.268532,310.941071   C94.955688,310.425934 96.324707,308.868866 97.911880,307.443420  z"/>
<path fill="#FEFFFF" opacity="1.000000" stroke="none" d=" M334.999634,306.973480   C344.165405,306.983917 353.333801,307.124664 362.495575,306.938629   C366.006500,306.867371 367.089996,308.077850 367.052307,311.536743   C366.908905,324.700165 367.020172,337.866364 366.831848,351.743042   C360.729614,356.951935 356.672913,362.586365 355.710327,370.131714   C349.111420,370.188782 342.512512,370.245850 335.405396,369.801208   C327.101135,356.877197 316.029663,353.541138 300.117371,358.480774   C293.418884,338.393433 264.797119,336.306244 254.688538,352.232544   C253.885712,352.326782 253.418777,352.317993 252.545227,352.183777   C250.438828,351.988922 248.739029,351.919525 247.034439,351.390900   C247.015945,337.799683 247.091797,324.666534 246.928085,311.536438   C246.885056,308.085083 247.991241,306.824951 251.497162,306.946045   C258.636414,307.192627 265.787598,307.093201 272.878662,307.521179   C271.839569,311.721466 270.937012,315.520355 274.432007,318.311615   C277.100586,314.346985 279.606018,310.624725 282.569977,306.932556   C298.667450,307.021576 314.306427,307.080536 329.941559,307.503967   C328.573792,310.464752 327.344543,313.143951 325.811707,315.636414   C323.911621,318.725983 321.355347,321.470398 319.827911,324.714844   C318.218201,328.134033 318.148529,331.784546 321.782776,333.975616   C324.316681,329.850677 326.159607,325.424652 329.243622,322.177277   C333.464478,317.732788 335.533173,312.974487 334.999634,306.973480  z"/>
<path fill="#2B2F40" opacity="1.000000" stroke="none" d=" M458.013611,371.438477   C468.262024,367.605133 478.446136,364.153900 488.862640,360.418579   C490.005676,360.012360 490.916351,359.890289 492.392090,359.413116   C504.637451,355.028168 516.317749,350.998291 527.997986,346.968445   C536.402588,344.313477 544.851074,341.787567 553.192749,338.947723   C557.210022,337.580078 560.774292,338.358582 562.740295,341.673676   C564.769226,345.094910 566.375061,349.204651 566.634949,353.114929   C566.897705,357.067169 564.946716,360.418610 559.974182,361.474182   C544.400696,364.780182 528.921753,368.531219 512.733398,372.443420   C504.877014,374.642609 497.693359,376.508148 490.509705,378.373688   C490.141876,378.442383 489.774078,378.511108 488.809082,378.763519   C478.487610,382.286804 468.763336,385.626404 459.039062,388.966003   C459.291229,385.084106 459.771790,381.197693 459.696045,377.322174   C459.659973,375.477661 458.564758,373.653809 458.013611,371.438477  z"/>
<path fill="#F1F6FA" opacity="1.000000" stroke="none" d=" M458.820374,389.285156   C468.763336,385.626404 478.487610,382.286804 488.606445,378.973816   C488.996368,393.308655 488.881195,407.618317 489.060608,421.924286   C489.108673,425.759705 488.065033,427.171722 484.023895,427.099884   C471.067871,426.869476 458.105225,427.014221 445.671875,427.014221   C450.020264,414.432892 454.310974,402.018585 458.820374,389.285156  z"/>
<path fill="#F94B5B" opacity="1.000000" stroke="none" d=" M162.373901,370.265198   C154.094406,363.832001 153.391129,361.952576 156.742157,354.789368   C159.892990,352.550446 162.685623,350.753937 165.098557,349.201721   C165.635147,347.942261 166.049103,346.821716 166.580124,345.759735   C167.339935,344.240265 168.185349,342.763580 168.994202,341.268616   C174.879196,337.031036 177.941025,337.101715 183.811676,342.415497   C187.809006,346.033691 191.553116,349.973724 195.094788,354.044495   C202.419540,362.463501 211.837036,367.224060 222.520767,370.560486   C203.368881,370.865509 184.000122,370.919189 164.631332,370.936798   C164.013718,370.937378 163.395782,370.567963 162.373901,370.265198  z"/>
<path fill="#FEBD27" opacity="1.000000" stroke="none" d=" M255.024429,352.129517   C264.797119,336.306244 293.418884,338.393433 299.942291,358.785583   C296.519684,363.256409 293.222290,367.068481 289.924896,370.880554   C276.925354,370.904053 263.925781,370.927521 250.461975,370.462036   C249.477264,363.406555 251.763596,357.630768 255.024429,352.129517  z"/>
<path fill="#F2F6FA" opacity="1.000000" stroke="none" d=" M490.650085,378.875061   C497.693359,376.508148 504.877014,374.642609 512.462585,372.711426   C512.576355,388.171356 512.249084,403.696472 512.042908,419.223175   C512.012634,421.502075 512.557434,423.788635 512.921143,426.469330   C507.044006,426.916565 501.076691,426.833679 495.121735,427.066925   C491.717377,427.200226 490.956146,425.673767 490.963867,422.606964   C491.000092,408.197021 490.864624,393.786621 490.650085,378.875061  z"/>
<path fill="#9F3622" opacity="1.000000" stroke="none" d=" M356.031067,370.429871   C356.672913,362.586365 360.729614,356.951935 366.871094,352.207764   C367.640900,351.769196 368.167023,351.577393 368.890564,351.171143   C382.675964,345.180847 392.513885,347.680023 402.765503,360.061920   C398.818634,364.015686 394.913422,367.430054 391.008240,370.844421   C379.456085,370.805664 367.903961,370.766876 356.031067,370.429871  z"/>
<path fill="#63B249" opacity="1.000000" stroke="none" d=" M290.396973,370.926025   C293.222290,367.068481 296.519684,363.256409 299.992188,359.139526   C316.029663,353.541138 327.101135,356.877197 335.040955,369.615540   C333.647400,370.286774 332.111725,370.941772 330.572479,370.950287   C317.338379,371.023590 304.103638,370.980103 290.396973,370.926025  z"/>
<path fill="#FD9328" opacity="1.000000" stroke="none" d=" M254.688538,352.232544   C251.763596,357.630768 249.477264,363.406555 249.996063,370.405029   C241.699570,370.862762 233.404724,370.888519 224.654816,370.866211   C227.164169,360.516907 234.363708,354.866821 244.696381,352.252747   C244.946625,352.122650 245.004288,352.357849 245.339157,352.517090   C248.099960,352.553925 250.525894,352.431549 252.951828,352.309204   C253.418777,352.317993 253.885712,352.326782 254.688538,352.232544  z"/>
<path fill="#F94B5B" opacity="1.000000" stroke="none" d=" M391.472412,370.904358   C394.913422,367.430054 398.818634,364.015686 402.956757,360.351318   C415.491302,357.119324 426.016357,359.478424 433.847687,370.570740   C419.949890,370.907196 405.943268,370.935760 391.472412,370.904358  z"/>
<path fill="#F7F9FC" opacity="1.000000" stroke="none" d=" M111.000916,65.000610   C110.667290,67.789635 110.049782,70.578033 110.043549,73.367790   C109.974419,104.303505 109.999596,135.239426 110.000221,166.175293   C110.000443,177.110382 110.887192,177.983597 122.428864,178.006622   C122.861618,179.454025 122.861618,180.898758 122.861618,183.033112   C115.896927,183.033112 109.443451,183.033112 102.528809,183.071228   C100.328163,183.058685 98.588676,183.008026 96.327240,182.565704   C91.997742,178.697586 83.804077,179.075958 80.020103,182.902954   C79.261032,182.922531 78.501953,182.942108 77.363525,182.932312   C73.616287,178.716812 74.949837,173.886871 74.960670,169.171097   C75.035133,136.755554 74.956787,104.339600 75.079025,71.924347   C75.089188,69.227867 76.215622,66.535591 76.902618,63.474369   C77.435814,63.092762 77.889793,63.078152 78.805969,63.409077   C81.390877,65.475487 83.370094,65.931488 84.977089,63.106884   C88.021194,63.088089 91.065300,63.069294 94.653275,63.392033   C96.785706,64.583061 98.370941,66.133255 99.963524,66.140839   C103.640755,66.158371 107.321564,65.427765 111.000916,65.000610  z"/>
<path fill="#FFFFFF" opacity="1.000000" stroke="none" d=" M125.041077,304.885803   C125.027290,266.745880 125.088036,228.605545 124.900040,190.466431   C124.877945,185.983673 126.236481,184.892181 130.563354,184.910660   C168.369644,185.072113 206.176910,185.008652 244.479584,185.487228   C244.947968,225.626877 244.920670,265.291260 244.503387,304.966522   C243.072556,305.033295 242.031708,305.089172 240.524902,305.098389   C201.719650,304.996399 163.380371,304.941101 125.041077,304.885803  z"/>
<path fill="#F1F6FA" opacity="1.000000" stroke="none" d=" M366.963531,185.104523   C366.973450,223.236801 366.911530,261.369415 367.089905,299.500885   C367.110779,303.959412 365.779724,305.241272 361.420746,305.090637   C352.606140,304.786133 343.773224,305.010986 334.462769,304.667755   C332.868439,302.361389 331.759247,300.404846 330.650055,298.448273   C330.379059,298.602875 330.108093,298.757477 329.837128,298.912079   C330.222076,300.955566 330.607025,302.999084 330.524414,305.028839   C323.385529,304.972687 316.714203,304.930298 310.048889,304.520599   C311.511871,298.607574 314.254944,293.946014 318.465424,289.901031   C324.019653,284.565155 323.313507,274.699829 317.118835,270.881775   C318.790863,276.169006 317.279297,280.527191 314.287872,284.523041   C312.406525,287.036133 310.400787,289.465271 308.657166,292.070190   C305.925262,296.151611 304.499664,300.412231 307.459900,304.928040   C299.343933,304.935730 291.690613,304.910004 284.191101,304.575897   C289.653900,295.232788 289.378052,288.412384 283.529083,284.097717   C283.468964,294.091858 281.078308,299.317291 273.479675,305.036316   C264.369690,305.005951 255.724777,304.986176 247.051941,304.500580   C247.039398,264.365112 247.054794,224.695450 247.070175,185.025787   C247.501541,184.993683 247.932892,184.961578 249.151520,184.931717   C288.947021,184.990814 327.955292,185.047668 366.963531,185.104523  z"/>
<path fill="#FEFFFF" opacity="1.000000" stroke="none" d=" M246.846695,136.990402   C246.653198,133.825256 248.229660,132.695343 251.254425,132.974716   C252.851028,133.122192 254.475540,132.967346 256.536285,132.899765   C291.301025,132.905136 325.616913,132.961304 359.932831,133.013046   C366.981934,133.023682 366.987671,133.016006 366.987762,139.979080   C366.987915,153.972916 366.981140,167.966766 366.504425,182.460114   C361.383636,182.973526 356.735626,182.992813 352.087646,183.000443   C317.726807,183.056763 283.365997,183.110764 249.005173,183.165497   C248.581436,183.113083 248.157684,183.060654 247.380997,182.522736   C246.967590,167.021622 246.907150,152.006012 246.846695,136.990402  z"/>
<path fill="#B6BCC1" opacity="1.000000" stroke="none" d=" M246.710083,185.021378   C247.054794,224.695450 247.039398,264.365112 246.687302,304.506317   C245.864853,304.970459 245.379105,304.963043 244.893372,304.955627   C244.920670,265.291260 244.947968,225.626877 244.942474,185.497589   C245.389786,185.027420 245.869888,185.022186 246.710083,185.021378  z"/>
<path fill="#B6BCC1" opacity="1.000000" stroke="none" d=" M249.004395,183.444168   C283.365997,183.110764 317.726807,183.056763 352.087646,183.000443   C356.735626,182.992813 361.383636,182.973526 366.495636,182.921387   C366.965668,183.376556 366.971710,183.869995 366.970642,184.733978   C327.955292,185.047668 288.947021,184.990814 249.472580,184.885223   C249.005463,184.465286 249.004547,184.094055 249.004395,183.444168  z"/>
<path fill="#B6BCC1" opacity="1.000000" stroke="none" d=" M125.032364,305.253845   C163.380371,304.941101 201.719650,304.996399 240.526596,305.382538   C240.992630,306.092438 240.991013,306.471497 240.989395,306.850555   C206.630844,306.896698 172.272278,306.942108 137.913727,306.990021   C133.930054,306.995575 129.946426,307.014923 125.498009,307.061279   C125.030045,306.603729 125.026848,306.112793 125.032364,305.253845  z"/>
<path fill="#B5BDC2" opacity="1.000000" stroke="none" d=" M246.567627,136.991867   C246.907150,152.006012 246.967590,167.021622 247.061157,182.502167   C246.612610,182.972672 246.130951,182.978241 245.287720,182.979309   C244.975220,167.957825 245.024277,152.940857 245.123352,137.456299   C245.545105,136.990250 245.916840,136.991791 246.567627,136.991867  z"/>
<path fill="#FBFAFF" opacity="1.000000" stroke="none" d=" M80.484062,182.932129   C83.804077,179.075958 91.997742,178.697586 95.894341,182.539551   C90.971603,182.923828 85.959808,182.942566 80.484062,182.932129  z"/>
<path fill="#FBFAFF" opacity="1.000000" stroke="none" d=" M111.454910,65.000519   C107.321564,65.427765 103.640755,66.158371 99.963524,66.140839   C98.370941,66.133255 96.785706,64.583061 95.108627,63.420296   C95.486160,63.044659 95.952202,62.982288 96.761909,62.834854   C104.774071,62.844574 112.442551,62.939354 120.581078,63.093414   C121.036354,63.562389 121.021599,63.972088 121.002655,64.689514   C117.968620,64.998306 114.938766,64.999359 111.454910,65.000519  z"/>
<path fill="#FBFAFF" opacity="1.000000" stroke="none" d=" M84.552841,63.077236   C83.370094,65.931488 81.390877,65.475487 79.145966,63.430710   C80.725380,63.087070 82.426987,63.067329 84.552841,63.077236  z"/>
<path fill="#F2F6FA" opacity="1.000000" stroke="none" d=" M527.876831,346.720520   C516.317749,350.998291 504.637451,355.028168 492.579437,359.121155   C491.804321,357.651001 491.071533,356.119934 491.061798,354.584229   C490.971710,340.340912 491.102417,326.095703 490.937500,311.853699   C490.895844,308.258118 491.867432,306.744446 495.682007,306.941833   C501.133728,307.223999 506.609283,307.046112 512.539307,307.562683   C512.358826,318.759430 511.776947,329.462555 511.035095,340.154602   C510.768707,343.993561 511.735626,346.400635 516.134888,345.996094   C519.756531,345.663055 523.378296,345.331940 527.000000,345.000000   C527.251831,345.490875 527.503723,345.981750 527.876831,346.720520  z"/>
<path fill="#F7F9FC" opacity="1.000000" stroke="none" d=" M527.347839,344.871155   C523.378296,345.331940 519.756531,345.663055 516.134888,345.996094   C511.735626,346.400635 510.768707,343.993561 511.035095,340.154602   C511.776947,329.462555 512.358826,318.759430 513.006714,307.605164   C513.742065,307.087982 514.474731,307.026276 515.572388,306.923767   C520.982056,306.932007 526.026794,306.981049 531.538147,307.061188   C532.278137,315.176605 532.556519,323.260773 532.814819,331.345551   C532.835693,331.998108 532.879028,332.722900 532.637573,333.299164   C531.031982,337.131012 529.351685,340.931580 527.347839,344.871155  z"/>
<path fill="#EFF4F8" opacity="1.000000" stroke="none" d=" M257.454254,131.078934   C228.989212,131.085052 200.991455,130.931442 172.995911,131.114044   C168.145096,131.145676 166.633530,129.740234 166.898987,124.940254   C167.284912,117.961975 167.221115,110.936737 166.914215,103.950630   C166.734329,99.856140 168.300980,98.860596 172.110565,98.927391   C183.439758,99.126015 194.774704,98.994736 206.107391,98.998367   C272.769958,99.019722 339.432526,99.042786 406.554901,99.567337   C407.018921,110.332726 407.023102,120.596062 407.027313,130.859390   C398.667023,130.927856 390.306732,130.996323 381.480530,131.107605   C339.983856,131.111313 298.953064,131.072189 257.454254,131.078934  M197.195999,118.421249   C199.067535,117.643730 201.092712,117.076370 202.682922,115.913986   C203.006699,115.677330 202.078522,112.628967 201.025513,111.921364   C200.002838,111.234131 197.679794,111.327034 196.630707,112.069969   C194.311188,113.712563 194.496506,115.981262 197.195999,118.421249  M188.140411,118.802170   C189.040329,117.212616 190.533127,115.652107 190.612946,114.022385   C190.659225,113.077614 188.539597,111.449966 187.195023,111.198952   C186.146133,111.003128 184.173447,112.170265 183.682358,113.228683   C182.059464,116.726418 183.946884,118.457642 188.140411,118.802170  z"/>
<path fill="#DFE8EF" opacity="1.000000" stroke="none" d=" M330.991974,305.042572   C330.607025,302.999084 330.222076,300.955566 329.837128,298.912079   C330.108093,298.757477 330.379059,298.602875 330.650055,298.448273   C331.759247,300.404846 332.868439,302.361389 333.995026,304.679596   C334.269104,305.519165 334.525787,305.997101 334.891052,306.724243   C335.533173,312.974487 333.464478,317.732788 329.243622,322.177277   C326.159607,325.424652 324.316681,329.850677 321.782776,333.975616   C318.148529,331.784546 318.218201,328.134033 319.827911,324.714844   C321.355347,321.470398 323.911621,318.725983 325.811707,315.636414   C327.344543,313.143951 328.573792,310.464752 330.168274,307.299927   C330.596558,306.168518 330.794250,305.605530 330.991974,305.042572  z"/>
<path fill="#EFF4F8" opacity="1.000000" stroke="none" d=" M435.028625,96.869492   C424.705688,96.912025 414.382812,96.990036 404.059906,96.991493   C320.962128,97.003204 237.864380,97.000671 154.766617,97.001900   C146.734985,97.002014 145.598633,95.719398 147.135544,87.745438   C147.335953,86.705650 148.817657,85.817802 149.861694,85.080078   C150.310562,84.762909 151.157364,85.000160 151.823364,85.000267   C246.244797,85.015366 340.666229,85.031822 435.466248,85.489273   C435.572723,89.576721 435.300659,93.223106 435.028625,96.869492  z"/>
<path fill="#FEFFFF" opacity="1.000000" stroke="none" d=" M407.491699,130.909149   C407.023102,120.596062 407.018921,110.332726 407.023438,99.614037   C419.028870,99.106453 431.026581,99.125015 443.021545,98.953125   C446.088715,98.909164 447.100037,100.033470 447.046356,103.034019   C446.906250,110.864166 446.857422,118.702591 447.072754,126.529449   C447.170258,130.074173 445.882874,131.106949 442.451569,131.054230   C430.955292,130.877533 419.454895,130.969666 407.491699,130.909149  z"/>
<path fill="#FEFFFF" opacity="1.000000" stroke="none" d=" M435.493195,96.914810   C435.300659,93.223106 435.572723,89.576721 435.933807,85.540436   C445.020447,85.100899 454.019867,85.138588 463.014679,84.953308   C466.080780,84.890160 466.997772,86.040161 467.056061,89.030304   C467.211395,97.001755 467.340912,97.006104 459.455414,97.000755   C451.622864,96.995430 443.790314,96.974327 435.493195,96.914810  z"/>
<path fill="#FEFFFF" opacity="1.000000" stroke="none" d=" M203.306549,422.603821   C206.614517,429.132111 209.750580,435.319214 212.880356,441.493896   C206.845215,444.649353 199.246979,443.429626 195.193771,438.805084   C181.867432,423.600220 173.400436,405.999329 169.280151,386.248901   C168.554657,382.771271 169.354065,380.791321 173.421432,380.963959   C177.736649,381.147125 182.065826,380.995758 186.388885,381.001404   C192.757797,381.009705 193.890610,382.755005 195.138458,388.988464   C197.375900,400.165527 200.424850,411.180115 203.306549,422.603821  z"/>
<path fill="#299C75" opacity="1.000000" stroke="none" d=" M168.593262,341.202454   C168.185349,342.763580 167.339935,344.240265 166.580124,345.759735   C166.049103,346.821716 165.635147,347.942261 165.098557,349.201721   C162.685623,350.753937 159.892990,352.550446 156.843079,354.284119   C156.230621,352.578094 155.020782,350.314850 155.679352,349.407074   C157.708801,346.609711 156.228333,345.061829 154.730682,342.909973   C150.441681,336.747498 146.418030,330.400330 142.382416,324.266235   C147.262680,319.703033 148.093735,319.974976 149.935287,325.054199   C151.550552,329.509369 153.353973,333.932343 155.516342,338.142487   C157.436142,341.880280 159.986816,345.006592 164.806992,341.353943   C165.558746,340.784302 167.045456,341.184540 168.593262,341.202454  z"/>
<path fill="#B5BDC9" opacity="1.000000" stroke="none" d=" M241.407074,306.903259   C240.991013,306.471497 240.992630,306.092438 240.992554,305.429199   C242.031708,305.089172 243.072556,305.033295 244.503387,304.966522   C245.379105,304.963043 245.864853,304.970459 246.715225,304.972137   C255.724777,304.986176 264.369690,305.005951 273.462311,305.339508   C273.584625,306.147644 273.259247,306.641998 272.933868,307.136353   C265.787598,307.093201 258.636414,307.192627 251.497162,306.946045   C247.991241,306.824951 246.885056,308.085083 246.928085,311.536438   C247.091797,324.666534 247.015945,337.799683 246.685760,351.450256   C245.896011,352.098541 245.450150,352.228180 245.004288,352.357849   C245.004288,352.357849 244.946625,352.122650 244.984634,352.007690   C245.023117,338.509888 245.028610,325.127075 245.019226,311.744263   C245.017624,309.459534 245.475739,306.825165 241.407074,306.903259  z"/>
<path fill="#DFE8EF" opacity="1.000000" stroke="none" d=" M272.878662,307.521179   C273.259247,306.641998 273.584625,306.147644 273.927368,305.350098   C281.078308,299.317291 283.468964,294.091858 283.529083,284.097717   C289.378052,288.412384 289.653900,295.232788 283.898804,304.672119   C283.005646,305.685333 282.558563,306.293884 282.111450,306.902466   C279.606018,310.624725 277.100586,314.346985 274.432007,318.311615   C270.937012,315.520355 271.839569,311.721466 272.878662,307.521179  z"/>
<path fill="#B5BDC9" opacity="1.000000" stroke="none" d=" M282.569946,306.932556   C282.558563,306.293884 283.005646,305.685333 283.745026,304.980530   C291.690613,304.910004 299.343933,304.935730 307.813477,304.956543   C309.100769,304.930420 309.571838,304.909149 310.042908,304.887909   C316.714203,304.930298 323.385529,304.972687 330.524414,305.028839   C330.794250,305.605530 330.596558,306.168518 330.172119,306.935486   C314.306427,307.080536 298.667450,307.021576 282.569946,306.932556  z"/>
<path fill="#FEBD27" opacity="1.000000" stroke="none" d=" M245.339157,352.517090   C245.450150,352.228180 245.896011,352.098541 246.690552,351.909485   C248.739029,351.919525 250.438828,351.988922 252.545227,352.183746   C250.525894,352.431549 248.099960,352.553925 245.339157,352.517090  z"/>
<path fill="#DFE8EF" opacity="1.000000" stroke="none" d=" M310.048889,304.520599   C309.571838,304.909149 309.100769,304.930420 308.276154,304.923157   C304.499664,300.412231 305.925262,296.151611 308.657166,292.070190   C310.400787,289.465271 312.406525,287.036133 314.287872,284.523041   C317.279297,280.527191 318.790863,276.169006 317.118835,270.881775   C323.313507,274.699829 324.019653,284.565155 318.465424,289.901031   C314.254944,293.946014 311.511871,298.607574 310.048889,304.520599  z"/>
<path fill="#2B2F40" opacity="1.000000" stroke="none" d=" M196.868958,118.209686   C194.496506,115.981262 194.311188,113.712563 196.630707,112.069969   C197.679794,111.327034 200.002838,111.234131 201.025513,111.921364   C202.078522,112.628967 203.006699,115.677330 202.682922,115.913986   C201.092712,117.076370 199.067535,117.643730 196.868958,118.209686  z"/>
<path fill="#2B2F40" opacity="1.000000" stroke="none" d=" M187.759979,118.882103   C183.946884,118.457642 182.059464,116.726418 183.682358,113.228683   C184.173447,112.170265 186.146133,111.003128 187.195023,111.198952   C188.539597,111.449966 190.659225,113.077614 190.612946,114.022385   C190.533127,115.652107 189.040329,117.212616 187.759979,118.882103  z"/>
</svg>