<svg version="1.1" id="Layer_1" xmlns="http://www.w3.org/2000/svg" xmlns:xlink="http://www.w3.org/1999/xlink" x="0px" y="0px"
 viewBox="0 0 98 392" enable-background="new 0 0 98 392" xml:space="preserve">
<path fill="rgba(255,255,255,0)" opacity="1.000000" stroke="none" 
	d="
M1.000000,146.000000 
	C1.000000,97.333344 1.000000,49.166691 1.000000,1.000026 
	C33.666645,1.000017 66.333290,1.000017 98.999954,1.000009 
	C98.999969,131.666611 98.999969,262.333221 98.999985,392.999878 
	C66.333389,392.999939 33.666782,392.999939 1.000087,392.999969 
	C1.000000,310.833344 1.000000,228.666672 1.000000,146.000000 
M81.420616,230.160614 
	C81.476288,228.814560 81.531967,227.468521 82.185822,225.683014 
	C82.630089,214.137268 83.074348,202.591522 83.753822,190.206680 
	C83.705208,188.463165 83.656593,186.719666 83.821266,184.250259 
	C83.856323,183.495499 83.891380,182.740753 84.429626,181.510574 
	C84.293495,180.006516 84.157364,178.502457 84.061157,176.200317 
	C84.059547,175.135056 84.057938,174.069778 84.559418,172.349411 
	C84.658958,158.149582 84.768440,143.949768 84.822708,129.749771 
	C84.824944,129.164139 84.309357,128.576538 84.046135,127.186768 
	C84.015457,126.116524 83.984787,125.046272 84.065323,123.050751 
	C83.948540,117.373795 83.831757,111.696831 83.714661,105.375320 
	C83.666855,104.948715 83.619049,104.522110 83.801254,103.264458 
	C83.465446,99.517731 83.129639,95.771004 82.830406,91.159416 
	C81.247093,72.750809 79.663780,54.342197 78.520447,35.481293 
	C77.684486,30.452724 74.719673,28.154758 68.390251,27.983044 
	C68.003960,27.971458 67.617676,27.959875 67.045540,27.363661 
	C53.905399,22.034489 40.206482,19.482603 25.135134,19.042786 
	C22.352928,19.015554 19.566986,19.069242 16.789448,18.940960 
	C13.178472,18.774183 11.602485,20.373058 12.008495,24.853491 
	C12.748446,29.214722 13.488397,33.575951 14.191115,38.587776 
	C14.227824,39.020103 14.264533,39.452431 14.125454,40.757462 
	C15.605032,51.534294 17.021511,62.320335 18.592249,73.083862 
	C19.318546,78.060844 20.345831,82.993912 21.205883,88.595276 
	C21.228695,89.027138 21.251509,89.458992 21.077103,90.819382 
	C21.131781,94.134407 21.002127,97.464485 21.271606,100.761963 
	C22.805555,119.531967 24.595495,138.282455 25.966047,157.063843 
	C26.688404,166.962662 26.704279,176.912125 27.132488,186.834686 
	C27.177940,187.887909 27.852314,188.913986 28.161638,190.824417 
	C28.364988,194.211807 28.568338,197.599182 28.325939,201.671021 
	C28.224081,208.727249 28.004704,215.784409 28.061640,222.839355 
	C28.099657,227.549866 28.530970,232.257187 28.807837,237.643890 
	C28.861994,238.092361 28.916151,238.540848 28.873652,239.485077 
	C28.886967,239.652908 28.900284,239.820755 28.494486,240.561111 
	C28.629343,242.702026 28.764198,244.842957 28.587915,247.742371 
	C28.457518,251.508286 28.327122,255.274216 27.692734,259.368164 
	C27.784952,260.239929 27.877171,261.111694 27.892288,262.909088 
	C27.891018,266.934204 27.889746,270.959351 27.811996,275.822144 
	C27.643604,279.239288 27.475212,282.656403 27.125412,286.799103 
	C27.212896,287.534851 27.300381,288.270599 27.169371,289.838318 
	C27.151909,291.558929 27.134447,293.279541 26.591064,295.562561 
	C26.443010,297.388672 26.294958,299.214813 26.059618,301.969330 
	C25.958906,310.646240 25.858196,319.323181 25.446823,328.862030 
	C25.360769,331.937103 25.274714,335.012207 24.977777,338.843719 
	C25.022470,339.888824 25.067162,340.933899 24.910257,342.793701 
	C24.621397,346.537872 24.332535,350.282074 23.899729,354.860870 
	C23.626749,359.125000 23.205090,363.385864 23.110249,367.653931 
	C22.878458,378.084869 22.939297,378.086212 33.170570,382.720154 
	C35.137741,381.906616 37.104912,381.093109 39.765270,380.120148 
	C40.934341,379.252289 42.212605,378.498352 43.255486,377.498840 
	C53.016209,368.143555 58.468174,356.141479 64.062164,343.367554 
	C64.970367,339.913300 65.953949,336.476776 66.773109,333.001526 
	C69.601768,321.001221 72.373070,308.987335 75.416039,296.296844 
	C75.555191,294.848541 75.694344,293.400238 76.204247,291.230560 
	C76.651894,287.965088 77.245956,284.711914 77.521713,281.432007 
	C78.682144,267.629120 79.747498,253.818222 81.047699,239.282394 
	C81.038666,238.530746 81.029633,237.779083 81.232590,236.178268 
	C81.247108,234.436661 81.261635,232.695038 81.420616,230.160614 
z"/>
<path fill="#FACB5E" opacity="1.000000" stroke="none" 
	d="
M21.274323,89.890854 
	C21.251509,89.458992 21.228695,89.027138 21.444830,87.940262 
	C21.784044,85.655518 22.093243,84.006897 21.947906,82.399376 
	C21.362783,75.927483 20.637192,69.468292 20.320944,63.077942 
	C21.785349,65.567017 23.627375,67.916359 23.852028,70.411339 
	C24.381428,76.290787 24.006802,82.247513 24.355461,88.151863 
	C24.406862,89.022316 27.105745,90.676666 27.398855,90.448875 
	C30.754734,87.840828 32.435516,89.973381 34.186752,92.444130 
	C35.480556,94.269501 36.908024,96.000122 39.299294,99.099236 
	C40.245583,94.811569 41.628685,91.609650 41.524342,88.456955 
	C41.177086,77.964783 37.786507,67.621040 40.370487,57.084705 
	C41.487434,59.761993 42.673618,62.302643 42.921761,64.931824 
	C43.812691,74.371803 44.265736,83.853615 45.194435,93.289078 
	C45.356747,94.938141 47.015671,96.439903 47.990417,98.006416 
	C47.997456,98.003136 48.010277,97.994644 48.003902,98.328903 
	C47.993973,99.108772 47.990414,99.554382 47.720074,100.317398 
	C47.643898,106.089447 47.834503,111.544098 48.020714,117.329651 
	C48.017563,118.101509 48.018806,118.542473 48.013779,119.448364 
	C48.005466,122.668892 47.771709,125.451370 48.087193,128.170120 
	C48.280361,129.834808 49.316216,131.401688 49.979950,133.259186 
	C49.986267,133.505859 50.004002,133.999069 49.998474,134.415802 
	C49.991512,136.221695 49.990078,137.610855 49.738682,139.271637 
	C49.976406,141.368332 50.464092,143.193359 50.960835,145.017258 
	C50.969894,145.016113 50.986374,145.008865 50.983604,145.445480 
	C50.982208,147.921936 50.983585,149.961761 50.722725,152.309494 
	C50.307652,155.744720 50.154816,158.872055 49.735039,162.309418 
	C48.860634,167.984253 48.048332,173.382660 51.996239,178.375610 
	C51.997398,179.499832 51.993980,180.249283 51.658131,181.071716 
	C50.882931,182.097504 50.440170,183.050278 49.621742,183.890457 
	C48.832901,182.769592 48.181847,181.792664 48.044209,180.748093 
	C46.949024,172.436554 46.415222,164.011642 44.647110,155.851654 
	C44.101273,153.332535 40.273369,151.524597 37.948219,149.391022 
	C36.965427,151.597534 35.415997,153.732880 35.127972,156.026627 
	C34.654152,159.800049 35.138241,163.682709 34.958134,167.507050 
	C34.761330,171.685867 33.237125,175.207382 29.048439,176.538315 
	C28.352203,164.038010 27.759785,152.001480 26.985912,139.976608 
	C26.041485,125.301445 25.031277,110.628906 23.815897,95.974617 
	C23.643070,93.890762 22.154127,91.916069 21.274323,89.890854 
z"/>
<path fill="#EBBA5F" opacity="1.000000" stroke="none" 
	d="
M83.954109,123.976028 
	C83.984787,125.046272 84.015457,126.116524 83.785957,127.805077 
	C83.325027,129.281769 83.124283,130.140137 82.514832,130.999695 
	C78.586525,130.632996 77.174866,132.035187 76.841774,135.744858 
	C76.325592,141.493759 75.103691,147.186905 74.040680,152.877457 
	C72.189438,162.787766 70.279343,172.687775 68.287674,182.570694 
	C67.713875,185.417953 66.776085,188.191864 66.003952,190.542236 
	C66.351463,183.793152 66.494736,177.481018 67.111183,171.215424 
	C67.645012,165.789673 68.724327,160.418060 69.547066,155.020157 
	C71.036636,145.247162 73.283318,135.512222 73.792107,125.687767 
	C74.357101,114.778137 73.414223,103.782814 72.966873,92.831390 
	C72.724709,86.902840 72.147072,80.987984 71.691231,74.656670 
	C71.231239,74.636200 69.875153,74.575859 68.168518,74.499924 
	C69.499222,71.050964 70.676956,67.998489 72.010414,64.542397 
	C66.128288,61.983238 66.502220,58.623318 70.175697,54.456589 
	C71.343895,53.131538 71.421509,50.844997 71.998993,48.601097 
	C73.656082,44.800495 75.312355,41.397224 76.976761,37.658043 
	C76.989975,36.873871 76.995056,36.425606 77.270439,35.971992 
	C77.720657,35.955620 77.900558,35.944603 78.080467,35.933586 
	C79.663780,54.342197 81.247093,72.750809 82.587570,91.919998 
	C82.753563,96.485550 83.162399,100.290527 83.571243,104.095505 
	C83.619049,104.522110 83.666855,104.948715 83.496902,106.035965 
	C83.504135,112.456413 83.729126,118.216217 83.954109,123.976028 
z"/>
<path fill="#F8C559" opacity="1.000000" stroke="none" 
	d="
M29.071823,177.007248 
	C33.237125,175.207382 34.761330,171.685867 34.958134,167.507050 
	C35.138241,163.682709 34.654152,159.800049 35.127972,156.026627 
	C35.415997,153.732880 36.965427,151.597534 37.948219,149.391022 
	C40.273369,151.524597 44.101273,153.332535 44.647110,155.851654 
	C46.415222,164.011642 46.949024,172.436554 48.044209,180.748093 
	C48.181847,181.792664 48.832901,182.769592 49.621979,184.265060 
	C49.998013,185.501648 49.998150,186.251022 49.739426,187.292053 
	C49.355675,190.185196 47.379890,193.167068 51.003216,195.246063 
	C51.002132,195.494080 51.030186,195.989319 51.020454,196.445587 
	C51.008450,203.267090 51.006172,209.632339 50.665638,215.921997 
	C48.080532,213.413620 46.008121,210.785324 43.548744,208.590668 
	C39.099922,204.620712 38.112801,204.846069 35.447304,210.200104 
	C34.263088,212.578766 33.060013,214.532257 29.970226,213.531342 
	C29.564831,209.042587 29.168261,205.014587 28.771690,200.986572 
	C28.568338,197.599182 28.364988,194.211807 28.424654,190.060257 
	C28.815722,185.199814 28.943773,181.103531 29.071823,177.007248 
z"/>
<path fill="#F1B257" opacity="1.000000" stroke="none" 
	d="
M28.196728,259.040131 
	C28.327122,255.274216 28.457518,251.508286 29.129395,247.377396 
	C32.367733,247.869537 35.145687,249.636047 37.745445,249.404236 
	C44.182568,248.830261 46.596664,250.573883 47.056614,256.938965 
	C47.444859,262.311707 48.331085,267.648468 48.997398,273.453003 
	C49.001308,279.493011 48.798035,285.094055 49.145039,290.660797 
	C49.238583,292.161499 51.002464,293.558075 52.001381,295.338135 
	C52.009918,296.121582 52.016708,296.569366 52.020309,297.456543 
	C51.693623,301.268555 51.370129,304.641113 51.034760,308.439331 
	C51.004593,310.570282 50.986305,312.275604 50.659645,314.044678 
	C49.910358,314.748505 49.469440,315.388489 49.026360,316.453552 
	C48.999950,318.576233 48.975712,320.273834 48.546883,321.949554 
	C47.429405,320.680450 46.090057,319.423248 46.109676,318.187653 
	C46.205952,312.123505 46.663559,306.065063 46.995842,299.560455 
	C47.021271,294.994080 47.875572,290.422302 43.330406,288.018402 
	C39.015213,285.736115 34.426285,283.971375 29.960228,281.566284 
	C29.963470,279.780060 29.964212,278.406586 29.974821,276.565674 
	C29.632435,271.385803 29.280182,266.673431 28.943245,261.644989 
	C28.704617,260.566010 28.450674,259.803070 28.196728,259.040131 
z"/>
<path fill="#E2B059" opacity="1.000000" stroke="none" 
	d="
M83.926430,181.985992 
	C83.891380,182.740753 83.856323,183.495499 83.433243,184.524170 
	C82.333214,184.006607 81.621193,183.215149 80.094612,181.518265 
	C76.905098,190.423294 73.506104,198.396713 71.254028,206.681870 
	C69.459824,213.282578 69.157013,220.279007 68.027397,227.072357 
	C66.385345,236.947479 64.854980,246.852966 62.781872,256.640656 
	C61.255180,263.848572 58.936527,270.888733 56.601212,278.003540 
	C55.491238,277.996613 54.750828,277.989746 54.011978,277.655762 
	C54.013252,276.892365 54.012955,276.456177 54.366173,275.926086 
	C55.476433,274.095734 56.684414,272.416626 56.914009,270.613007 
	C58.083366,261.426819 58.999611,252.208374 60.307571,242.822754 
	C61.404079,240.429474 62.197483,238.214661 63.050171,235.613342 
	C63.407425,233.151474 63.705391,231.076096 64.344902,228.916641 
	C64.793381,227.221207 64.900314,225.609833 65.007042,223.624725 
	C65.007545,222.503510 65.008255,221.756042 65.369400,220.920776 
	C66.484360,217.886398 67.238876,214.939850 67.994507,211.577362 
	C67.996597,209.775177 67.997581,208.388947 68.265259,206.692398 
	C69.109039,201.825195 69.329391,197.186859 70.346718,192.730453 
	C71.878288,186.021408 74.418823,179.524933 75.693512,172.779938 
	C76.992592,165.905960 77.112564,158.817474 78.081017,151.869202 
	C78.559364,148.437378 78.490211,144.392059 82.948463,143.452972 
	C82.964119,153.618042 82.958656,163.313858 82.727219,173.239624 
	C82.646774,174.639465 82.792320,175.809372 82.953217,177.362274 
	C83.287849,179.158829 83.607140,180.572418 83.926430,181.985992 
z"/>
<path fill="#C79750" opacity="1.000000" stroke="none" 
	d="
M81.020599,237.027435 
	C81.029633,237.779083 81.038666,238.530746 80.586914,239.775269 
	C79.750801,241.960968 79.228508,243.636459 79.026848,245.349716 
	C78.333321,251.241745 79.159775,257.813721 76.763069,262.874420 
	C73.917877,268.882141 72.089012,274.953247 70.230263,281.221741 
	C65.779022,296.233246 60.778648,311.081940 55.750298,326.251129 
	C53.334835,331.984924 51.392765,337.569214 48.888828,342.889099 
	C47.938171,344.908905 45.694477,346.320099 44.026691,348.005127 
	C44.013252,348.001556 43.986725,347.993195 43.991562,347.576111 
	C44.666111,342.774323 45.335823,338.389618 46.155651,333.672821 
	C46.877869,331.231934 47.449970,329.123108 48.382900,326.951782 
	C49.805855,325.341766 51.194183,323.918610 51.844078,322.213928 
	C52.586063,320.267700 52.341469,317.941193 53.103405,316.007599 
	C55.256851,310.542694 57.767353,305.219849 60.023575,299.793793 
	C63.194138,292.168854 61.139019,283.216553 66.350754,275.918976 
	C67.129654,274.554230 67.562691,273.277527 67.996964,271.625549 
	C67.997223,270.499542 67.996246,269.748901 67.996590,268.614441 
	C67.666382,266.820831 67.334846,265.410950 67.053482,263.639526 
	C67.737640,261.187958 68.371635,259.097931 69.345444,256.927765 
	C71.462814,252.407013 73.116043,247.911087 75.058769,243.543961 
	C76.510986,240.279480 78.336693,237.181152 80.003944,234.344177 
	C80.348068,235.462143 80.684334,236.244797 81.020599,237.027435 
z"/>
<path fill="#DAA654" opacity="1.000000" stroke="none" 
	d="
M56.970772,278.003662 
	C58.936527,270.888733 61.255180,263.848572 62.781872,256.640656 
	C64.854980,246.852966 66.385345,236.947479 68.027397,227.072357 
	C69.157013,220.279007 69.459824,213.282578 71.254028,206.681870 
	C73.506104,198.396713 76.905098,190.423294 80.094612,181.518265 
	C81.621193,183.215149 82.333214,184.006607 83.326599,184.887115 
	C83.656593,186.719666 83.705208,188.463165 83.322182,190.775635 
	C81.926437,195.229401 80.962334,199.114212 79.638123,203.083679 
	C78.561150,204.218124 77.528099,205.173813 77.182846,206.334152 
	C75.775215,211.064911 74.446037,215.827789 73.335159,220.635941 
	C71.775337,227.387238 70.362762,234.175034 69.022614,240.973907 
	C67.783531,247.260025 66.660408,253.571152 65.634384,259.895325 
	C65.420990,261.210602 65.858078,262.631470 65.996109,264.377197 
	C65.996529,265.497650 65.996208,266.244537 65.638161,267.089905 
	C62.830635,275.901031 60.780869,284.754669 57.779766,293.273132 
	C56.003304,298.315552 56.617420,304.653503 51.046631,308.013702 
	C51.370129,304.641113 51.693623,301.268555 52.355560,297.374512 
	C53.631264,294.265076 59.239937,291.879913 53.042664,288.601196 
	C53.380428,286.486908 53.711380,284.753204 54.347969,282.955627 
	C55.099232,282.257935 55.544853,281.624084 56.229111,280.765625 
	C56.635418,279.695221 56.803097,278.849457 56.970772,278.003662 
z"/>
<path fill="#E6A854" opacity="1.000000" stroke="none" 
	d="
M48.022068,327.014282 
	C47.449970,329.123108 46.877869,331.231934 45.748672,333.645050 
	C44.461506,332.696503 43.324150,331.513397 43.095093,330.174805 
	C42.735306,328.072296 43.106457,325.856720 42.956924,323.703705 
	C42.624153,318.912323 40.846397,317.583313 36.175800,318.442749 
	C31.382553,319.324738 29.223425,317.744843 29.037737,312.939270 
	C28.883656,308.951691 28.991096,304.953979 28.981201,300.550781 
	C28.983900,298.769989 28.988079,297.399200 28.883648,295.820618 
	C28.591705,295.351501 28.356016,295.152008 27.830364,295.001465 
	C27.592758,294.988525 27.116983,295.000153 27.116983,295.000153 
	C27.134447,293.279541 27.151909,291.558929 27.544044,289.422180 
	C28.277861,289.006927 28.637007,289.007751 29.001137,289.387085 
	C30.674051,296.331268 33.515240,298.707031 39.723824,299.032135 
	C42.157360,299.159576 44.570885,299.669128 46.993523,300.004639 
	C46.663559,306.065063 46.205952,312.123505 46.109676,318.187653 
	C46.090057,319.423248 47.429405,320.680450 48.513123,322.317017 
	C48.596653,324.142303 48.309361,325.578308 48.022068,327.014282 
z"/>
<path fill="#D8984D" opacity="1.000000" stroke="none" 
	d="
M25.188656,338.087280 
	C25.274714,335.012207 25.360769,331.937103 25.833059,328.310638 
	C27.686962,327.880188 29.750311,327.421600 30.524429,328.217316 
	C35.125343,332.946564 39.480923,337.888031 41.056129,344.659058 
	C41.351555,345.928955 42.975727,346.889771 43.986725,347.993195 
	C43.986725,347.993195 44.013252,348.001556 44.013351,348.416321 
	C43.672455,351.550018 43.331455,354.269012 42.981941,356.987244 
	C42.973427,356.986481 42.957268,356.979797 42.684723,357.026550 
	C42.271091,357.715851 42.130001,358.358459 41.938675,359.376678 
	C41.572666,361.490875 41.256897,363.229462 40.568832,364.955963 
	C39.616714,364.676239 38.592430,364.492157 38.524014,364.128296 
	C37.560249,359.003571 34.153446,356.426697 29.583006,354.540497 
	C26.795660,353.390198 25.440771,351.064911 26.499905,347.586426 
	C27.011007,345.907837 26.216393,343.831665 26.007969,341.592590 
	C25.731504,340.195526 25.460081,339.141418 25.188656,338.087280 
z"/>
<path fill="#BC8D4E" opacity="1.000000" stroke="none" 
	d="
M55.999931,325.996338 
	C60.778648,311.081940 65.779022,296.233246 70.230263,281.221741 
	C72.089012,274.953247 73.917877,268.882141 76.763069,262.874420 
	C79.159775,257.813721 78.333321,251.241745 79.026848,245.349716 
	C79.228508,243.636459 79.750801,241.960968 80.486893,240.139221 
	C79.747498,253.818222 78.682144,267.629120 77.521713,281.432007 
	C77.245956,284.711914 76.651894,287.965088 75.815544,291.426331 
	C74.703606,291.956451 73.593452,292.098053 73.316223,292.654572 
	C70.101036,299.108795 67.534836,305.961456 63.669331,311.985046 
	C61.721962,315.019623 60.801239,317.663086 60.659752,321.080994 
	C58.880833,322.774261 57.440384,324.385315 55.999931,325.996338 
z"/>
<path fill="#A97744" opacity="1.000000" stroke="none" 
	d="
M39.072086,380.279572 
	C37.104912,381.093109 35.137741,381.906616 33.230095,382.214172 
	C34.525108,380.807800 35.760593,379.907410 37.051407,378.627960 
	C37.763905,375.186768 38.421070,372.124664 39.296867,368.879547 
	C40.011364,368.131042 40.507225,367.565491 41.338879,366.932281 
	C47.742355,357.400269 56.074116,349.248718 58.387299,337.600281 
	C58.795189,335.546265 59.991913,333.634399 60.913788,331.699463 
	C65.256081,322.585510 70.828720,314.000580 72.188759,303.635620 
	C72.491791,301.326172 74.138268,299.192993 75.166214,296.978638 
	C72.373070,308.987335 69.601768,321.001221 66.773109,333.001526 
	C65.953949,336.476776 64.970367,339.913300 63.565865,343.754272 
	C57.166374,352.601013 51.186104,361.008820 45.397820,369.546722 
	C43.072159,372.977173 41.168060,376.693420 39.072086,380.279572 
z"/>
<path fill="#FDF692" opacity="1.000000" stroke="none" 
	d="
M12.074859,23.966030 
	C11.602485,20.373058 13.178472,18.774183 16.789448,18.940960 
	C19.566986,19.069242 22.352928,19.015554 25.862823,19.309395 
	C37.042164,22.088274 47.493813,24.600544 57.960255,27.331472 
	C57.975048,27.550133 57.993977,27.990185 57.949791,28.341125 
	C57.264618,30.455360 56.623631,32.218655 55.610817,33.985611 
	C54.494366,33.995186 53.749733,34.001099 52.596603,34.005104 
	C48.460690,34.334068 44.733273,34.664940 40.738468,34.783806 
	C38.378147,33.355377 36.413822,31.763613 34.167789,30.994053 
	C27.834759,28.824167 21.386007,26.992023 14.698975,24.894077 
	C13.635007,24.496273 12.854933,24.231152 12.074859,23.966030 
z"/>
<path fill="#DCA456" opacity="1.000000" stroke="none" 
	d="
M43.991562,347.576111 
	C42.975727,346.889771 41.351555,345.928955 41.056129,344.659058 
	C39.480923,337.888031 35.125343,332.946564 30.524429,328.217316 
	C29.750311,327.421600 27.686962,327.880188 25.988392,327.879669 
	C25.858196,319.323181 25.958906,310.646240 26.457045,301.493530 
	C27.563875,300.998718 28.273277,300.979736 28.982681,300.960754 
	C28.991096,304.953979 28.883656,308.951691 29.037737,312.939270 
	C29.223425,317.744843 31.382553,319.324738 36.175800,318.442749 
	C40.846397,317.583313 42.624153,318.912323 42.956924,323.703705 
	C43.106457,325.856720 42.735306,328.072296 43.095093,330.174805 
	C43.324150,331.513397 44.461506,332.696503 45.598557,333.977112 
	C45.335823,338.389618 44.666111,342.774323 43.991562,347.576111 
M27.451151,319.490143 
	C27.451151,319.490143 27.518908,319.456665 27.451151,319.490143 
z"/>
<path fill="#B58144" opacity="1.000000" stroke="none" 
	d="
M75.291122,296.637756 
	C74.138268,299.192993 72.491791,301.326172 72.188759,303.635620 
	C70.828720,314.000580 65.256081,322.585510 60.913788,331.699463 
	C59.991913,333.634399 58.795189,335.546265 58.387299,337.600281 
	C56.074116,349.248718 47.742355,357.400269 41.333580,366.593689 
	C40.975368,365.871185 40.958248,365.419617 40.941128,364.968018 
	C41.256897,363.229462 41.572666,361.490875 42.166763,359.190979 
	C42.615818,358.079681 42.786549,357.529724 42.957275,356.979797 
	C42.957268,356.979797 42.973427,356.986481 43.326958,356.941345 
	C46.112362,353.329498 48.852150,349.929565 50.896656,346.153168 
	C53.345558,341.629822 55.337971,336.840515 57.268429,332.061523 
	C58.723461,328.459473 59.769909,324.692413 60.998222,320.998779 
	C60.801239,317.663086 61.721962,315.019623 63.669331,311.985046 
	C67.534836,305.961456 70.101036,299.108795 73.316223,292.654572 
	C73.593452,292.098053 74.703606,291.956451 75.630173,291.787018 
	C75.694344,293.400238 75.555191,294.848541 75.291122,296.637756 
z"/>
<path fill="#F2BA5B" opacity="1.000000" stroke="none" 
	d="
M48.996906,273.001160 
	C48.331085,267.648468 47.444859,262.311707 47.056614,256.938965 
	C46.596664,250.573883 44.182568,248.830261 37.745445,249.404236 
	C35.145687,249.636047 32.367733,247.869537 29.284962,246.998138 
	C28.764198,244.842957 28.629343,242.702026 28.861267,240.188751 
	C29.288675,239.715286 29.425179,239.569458 29.396599,239.521011 
	C29.282381,239.327332 29.116854,239.163925 28.970310,238.989319 
	C28.916151,238.540848 28.861994,238.092361 29.088316,237.310730 
	C29.562153,236.973419 29.755512,236.969299 30.273808,237.144623 
	C34.120647,239.859390 36.906422,240.096985 38.524212,235.172607 
	C39.255325,232.947174 40.765968,232.418762 42.611977,234.392273 
	C45.308353,237.274902 48.039963,240.001373 48.225101,244.421982 
	C48.276592,245.651398 50.026917,246.809692 50.999050,248.417206 
	C51.000530,250.222534 51.000824,251.611267 50.732513,253.314087 
	C50.309528,258.085449 50.155144,262.542725 50.000648,267.401764 
	C49.665997,269.536072 49.331455,271.268616 48.996906,273.001160 
z"/>
<path fill="#EED18B" opacity="1.000000" stroke="none" 
	d="
M29.048441,176.538315 
	C28.943773,181.103531 28.815722,185.199814 28.461296,189.624390 
	C27.852314,188.913986 27.177940,187.887909 27.132488,186.834686 
	C26.704279,176.912125 26.688404,166.962662 25.966047,157.063843 
	C24.595495,138.282455 22.805555,119.531967 21.271606,100.761963 
	C21.002127,97.464485 21.131781,94.134407 21.175713,90.355118 
	C22.154127,91.916069 23.643070,93.890762 23.815897,95.974617 
	C25.031277,110.628906 26.041485,125.301445 26.985912,139.976608 
	C27.759785,152.001480 28.352203,164.038010 29.048441,176.538315 
z"/>
<path fill="#FBD36A" opacity="1.000000" stroke="none" 
	d="
M14.301242,39.884758 
	C14.264533,39.452431 14.227824,39.020103 14.425346,37.965946 
	C14.778239,35.565048 14.896900,33.785984 15.442238,32.004375 
	C20.684332,32.548595 25.122204,29.826298 30.546513,33.532207 
	C36.625538,37.685429 40.907475,41.298946 39.745159,48.884819 
	C38.993496,48.513523 38.497128,48.256496 37.953430,47.657303 
	C33.791599,44.002201 29.996479,40.103176 25.432056,37.615902 
	C23.038403,36.311531 18.520948,34.996418 16.616760,40.050941 
	C15.621903,39.988041 14.961573,39.936398 14.301242,39.884758 
z"/>
<path fill="#9E734A" opacity="1.000000" stroke="none" 
	d="
M39.418678,380.199860 
	C41.168060,376.693420 43.072159,372.977173 45.397820,369.546722 
	C51.186104,361.008820 57.166374,352.601013 63.391769,344.079834 
	C58.468174,356.141479 53.016209,368.143555 43.255486,377.498840 
	C42.212605,378.498352 40.934341,379.252289 39.418678,380.199860 
z"/>
<path fill="#CE8E49" opacity="1.000000" stroke="none" 
	d="
M40.568832,364.955963 
	C40.958248,365.419617 40.975368,365.871185 40.997787,366.661377 
	C40.507225,367.565491 40.011364,368.131042 38.943882,368.815735 
	C34.246647,366.622070 30.121025,364.309204 25.995396,361.565674 
	C25.344814,358.765411 24.694244,356.395844 24.043674,354.026245 
	C24.332535,350.282074 24.621397,346.537872 25.236542,342.384644 
	C25.562824,341.975555 26.013010,341.935516 26.013008,341.935516 
	C26.216393,343.831665 27.011007,345.907837 26.499905,347.586426 
	C25.440771,351.064911 26.795660,353.390198 29.583006,354.540497 
	C34.153446,356.426697 37.560249,359.003571 38.524014,364.128296 
	C38.592430,364.492157 39.616714,364.676239 40.568832,364.955963 
z"/>
<path fill="#BB864F" opacity="1.000000" stroke="none" 
	d="
M23.971703,354.443542 
	C24.694244,356.395844 25.344814,358.765411 25.835117,361.932190 
	C26.066719,365.775146 25.448404,369.627991 27.086407,371.678284 
	C29.564638,374.780273 33.614197,376.626953 36.996071,379.007019 
	C35.760593,379.907410 34.525108,380.807800 33.052895,381.985046 
	C22.939297,378.086212 22.878458,378.084869 23.110249,367.653931 
	C23.205090,363.385864 23.626749,359.125000 23.971703,354.443542 
z"/>
<path fill="#EED18B" opacity="1.000000" stroke="none" 
	d="
M14.213348,40.321110 
	C14.961573,39.936398 15.621903,39.988041 16.620657,40.472504 
	C16.984972,42.604359 17.010864,44.303387 17.039734,46.408806 
	C17.375824,49.542675 17.708935,52.270157 18.058950,55.288864 
	C18.371929,56.058769 18.668007,56.537445 18.992952,57.304569 
	C19.317135,58.069572 19.612448,58.546131 19.913368,59.420837 
	C19.933813,60.880795 19.948652,61.942600 19.963493,63.004406 
	C20.637192,69.468292 21.362783,75.927483 21.947906,82.399376 
	C22.093243,84.006897 21.784044,85.655518 21.460215,87.616066 
	C20.345831,82.993912 19.318546,78.060844 18.592249,73.083862 
	C17.021511,62.320335 15.605032,51.534294 14.213348,40.321110 
z"/>
<path fill="#EBCB7E" opacity="1.000000" stroke="none" 
	d="
M57.945461,27.112812 
	C47.493813,24.600544 37.042164,22.088274 26.328899,19.347523 
	C40.206482,19.482603 53.905399,22.034489 66.670235,27.677965 
	C63.869930,27.980902 61.444927,27.969534 58.885063,27.765888 
	C58.531891,27.332823 58.263645,27.179224 57.945461,27.112812 
z"/>
<path fill="#D0A156" opacity="1.000000" stroke="none" 
	d="
M79.998238,202.999023 
	C80.962334,199.114212 81.926437,195.229401 83.204575,191.195190 
	C83.074348,202.591522 82.630089,214.137268 81.488220,225.870239 
	C80.526268,226.037308 80.261909,226.017136 79.997803,225.573425 
	C79.641273,223.227905 79.195580,221.317154 78.951050,219.380981 
	C78.668076,217.140335 78.266426,214.852997 78.449471,212.629822 
	C78.715477,209.398941 79.458580,206.207367 79.998238,202.999023 
z"/>
<path fill="#D4B78A" opacity="1.000000" stroke="none" 
	d="
M82.953201,173.009689 
	C82.958656,163.313858 82.964119,153.618042 82.971764,142.994370 
	C82.957146,138.377197 82.940346,134.687851 82.923538,130.998520 
	C83.124283,130.140137 83.325027,129.281769 83.780396,128.206619 
	C84.309357,128.576538 84.824944,129.164139 84.822708,129.749771 
	C84.768440,143.949768 84.658958,158.149582 84.031982,172.681976 
	C83.320763,173.012924 83.136978,173.011307 82.953201,173.009689 
z"/>
<path fill="#EED18B" opacity="1.000000" stroke="none" 
	d="
M29.948872,236.965164 
	C29.755512,236.969299 29.562153,236.973419 29.077534,236.971741 
	C28.530970,232.257187 28.099657,227.549866 28.061640,222.839355 
	C28.004704,215.784409 28.224081,208.727249 28.548815,201.328796 
	C29.168261,205.014587 29.564831,209.042587 29.962688,214.000824 
	C29.958941,222.275742 29.953905,229.620453 29.948872,236.965164 
z"/>
<path fill="#FFEC85" opacity="1.000000" stroke="none" 
	d="
M59.019928,27.958168 
	C61.444927,27.969534 63.869930,27.980902 66.763153,27.970280 
	C67.617676,27.959875 68.003960,27.971458 68.686707,28.394209 
	C68.989082,29.537745 68.995010,30.270115 68.573898,31.002419 
	C64.092125,31.995552 60.037384,32.988750 55.982643,33.981953 
	C56.623631,32.218655 57.264618,30.455360 58.206451,28.337257 
	C58.678165,27.974356 58.849045,27.966261 59.019928,27.958168 
z"/>
<path fill="#F9E48B" opacity="1.000000" stroke="none" 
	d="
M69.000938,31.002485 
	C68.995010,30.270115 68.989082,29.537745 68.975128,28.441032 
	C74.719673,28.154758 77.684486,30.452724 78.300461,35.707439 
	C77.900558,35.944603 77.720657,35.955620 77.215958,35.664188 
	C76.261696,34.907814 75.632217,34.453884 74.927307,33.666164 
	C73.943016,33.039650 73.013779,32.797432 72.130531,32.441204 
	C71.066925,32.012238 70.042389,31.486391 69.000938,31.002485 
z"/>
<path fill="#EED18B" opacity="1.000000" stroke="none" 
	d="
M15.015561,32.006916 
	C14.896900,33.785984 14.778239,35.565048 14.443962,37.640648 
	C13.488397,33.575951 12.748446,29.214722 12.041677,24.409760 
	C12.854933,24.231152 13.635007,24.496273 14.701963,25.328810 
	C14.997750,27.933121 15.006656,29.970018 15.015561,32.006916 
z"/>
<path fill="#E8B05C" opacity="1.000000" stroke="none" 
	d="
M28.927927,261.961029 
	C29.280182,266.673431 29.632435,271.385803 29.745861,276.381653 
	C28.967518,276.104858 28.427999,275.544678 27.888477,274.984467 
	C27.889746,270.959351 27.891018,266.934204 28.170563,262.443542 
	C28.448839,261.977966 28.927927,261.961029 28.927927,261.961029 
z"/>
<path fill="#DEB36F" opacity="1.000000" stroke="none" 
	d="
M27.850239,275.403320 
	C28.427999,275.544678 28.967518,276.104858 29.735996,276.849091 
	C29.964212,278.406586 29.963470,279.780060 29.720057,281.825745 
	C29.319408,283.663666 29.161432,284.829407 28.719501,286.006683 
	C28.059301,286.036682 27.683060,286.055115 27.306820,286.073547 
	C27.475212,282.656403 27.643604,279.239288 27.850239,275.403320 
z"/>
<path fill="#D4B78A" opacity="1.000000" stroke="none" 
	d="
M84.009720,123.513390 
	C83.729126,118.216217 83.504135,112.456413 83.497063,106.358238 
	C83.831757,111.696831 83.948540,117.373795 84.009720,123.513390 
z"/>
<path fill="#DEB36F" opacity="1.000000" stroke="none" 
	d="
M28.981201,300.550781 
	C28.273277,300.979736 27.563875,300.998718 26.500687,301.029297 
	C26.294958,299.214813 26.443010,297.388672 26.854023,295.281372 
	C27.116983,295.000153 27.592758,294.988525 27.932980,295.211792 
	C28.459976,295.696930 28.699661,295.894714 28.992258,296.028381 
	C28.988079,297.399200 28.983900,298.769989 28.981201,300.550781 
z"/>
<path fill="#D4B78A" opacity="1.000000" stroke="none" 
	d="
M83.686249,103.679977 
	C83.162399,100.290527 82.753563,96.485550 82.569283,92.352425 
	C83.129639,95.771004 83.465446,99.517731 83.686249,103.679977 
z"/>
<path fill="#D4B78A" opacity="1.000000" stroke="none" 
	d="
M84.178024,181.748291 
	C83.607140,180.572418 83.287849,179.158829 83.224442,177.362930 
	C83.660614,176.986542 83.840919,176.992462 84.021233,176.998398 
	C84.157364,178.502457 84.293495,180.006516 84.178024,181.748291 
z"/>
<path fill="#D0A156" opacity="1.000000" stroke="none" 
	d="
M84.041199,176.599365 
	C83.840919,176.992462 83.660614,176.986542 83.209091,176.979950 
	C82.792320,175.809372 82.646774,174.639465 82.727219,173.239624 
	C83.136978,173.011307 83.320763,173.012924 83.780441,173.009521 
	C84.057938,174.069778 84.059547,175.135056 84.041199,176.599365 
z"/>
<path fill="#DCA456" opacity="1.000000" stroke="none" 
	d="
M27.216116,286.436340 
	C27.683060,286.055115 28.059301,286.036682 28.719425,286.383362 
	C29.000921,287.501831 28.998537,288.255219 28.996151,289.008575 
	C28.637007,289.007751 28.277861,289.006927 27.653290,289.006226 
	C27.300381,288.270599 27.212896,287.534851 27.216116,286.436340 
z"/>
<path fill="#BC8D4E" opacity="1.000000" stroke="none" 
	d="
M81.126595,236.602844 
	C80.684334,236.244797 80.348068,235.462143 80.007904,233.969101 
	C80.009598,232.509430 80.015175,231.760147 80.334831,231.001526 
	C80.857994,230.979263 81.067070,230.966354 81.276154,230.953430 
	C81.261635,232.695038 81.247108,234.436661 81.126595,236.602844 
z"/>
<path fill="#EED18B" opacity="1.000000" stroke="none" 
	d="
M28.943245,261.644989 
	C28.927927,261.961029 28.448839,261.977966 28.209114,261.980713 
	C27.877171,261.111694 27.784952,260.239929 27.944733,259.204163 
	C28.450674,259.803070 28.704617,260.566010 28.943245,261.644989 
z"/>
<path fill="#C79750" opacity="1.000000" stroke="none" 
	d="
M81.348389,230.557022 
	C81.067070,230.966354 80.857994,230.979263 80.327309,230.599655 
	C80.000793,229.135971 79.995888,228.064819 79.992783,226.744476 
	C79.994598,226.495300 79.997559,225.996948 79.997559,225.996948 
	C80.261909,226.017136 80.526268,226.037308 81.189133,226.089966 
	C81.531967,227.468521 81.476288,228.814560 81.348389,230.557022 
z"/>
<path fill="#DCA456" opacity="1.000000" stroke="none" 
	d="
M26.007969,341.592590 
	C26.013010,341.935516 25.562824,341.975555 25.337337,341.977295 
	C25.067162,340.933899 25.022470,339.888824 25.083218,338.465515 
	C25.460081,339.141418 25.731504,340.195526 26.007969,341.592590 
z"/>
<path fill="#E8B05C" opacity="1.000000" stroke="none" 
	d="
M28.921982,239.237198 
	C29.116854,239.163925 29.282381,239.327332 29.396599,239.521011 
	C29.425179,239.569458 29.288675,239.715286 29.070824,239.902481 
	C28.900284,239.820755 28.886967,239.652908 28.921982,239.237198 
z"/>
<path fill="#FFE37C" opacity="1.000000" stroke="none" 
	d="
M68.573898,31.002419 
	C70.042389,31.486391 71.066925,32.012238 72.130531,32.441204 
	C73.013779,32.797432 73.943016,33.039650 74.555420,33.670017 
	C72.505981,34.667839 70.752998,35.328018 68.814636,35.763435 
	C68.084648,35.365944 67.540039,35.193211 66.621796,35.017296 
	C65.500908,35.016834 64.753654,35.019562 63.630833,35.024239 
	C61.847107,36.015560 59.944569,36.715378 59.153427,38.066147 
	C58.118172,39.833710 58.030277,42.136566 57.414280,44.172672 
	C54.893108,52.506111 52.746201,60.820423 53.874187,69.732597 
	C54.295979,73.065132 53.331074,76.573181 52.756996,80.244644 
	C53.009171,82.658051 53.502781,84.828011 53.996132,87.448059 
	C53.997444,90.598564 53.999016,93.298973 53.798870,96.157608 
	C53.733784,96.878006 53.870415,97.440186 54.072433,98.414536 
	C54.758076,106.217857 55.378323,113.609032 55.758835,121.237808 
	C56.005180,122.651726 56.491264,123.828033 56.982391,125.441734 
	C56.998238,127.921097 57.009045,129.963074 57.016197,132.467896 
	C57.010120,136.952805 57.007698,140.974869 56.662823,145.040527 
	C54.542370,145.059036 52.764370,145.033951 50.986374,145.008850 
	C50.986374,145.008865 50.969894,145.016113 50.976212,144.587402 
	C50.986786,142.440765 50.991043,140.722870 51.140579,138.680923 
	C50.858574,136.904282 50.431290,135.451675 50.004005,133.999069 
	C50.004002,133.999069 49.986267,133.505859 49.990494,132.813934 
	C49.998596,129.748795 50.002468,127.375595 50.364243,124.902946 
	C53.416973,121.623238 51.457668,118.830246 49.989239,115.574417 
	C49.664749,112.103455 49.340324,109.054482 49.346855,105.924034 
	C51.613636,104.184891 51.503696,102.883240 49.006996,101.663620 
	C49.005169,100.886520 49.004883,100.442467 49.202789,99.814636 
	C48.937416,99.085464 48.473846,98.540054 48.010277,97.994644 
	C48.010277,97.994644 47.997456,98.003136 47.997360,97.630081 
	C47.998341,96.504692 47.999420,95.752342 48.258236,94.712341 
	C48.341240,91.949142 48.166508,89.473595 47.976154,86.588028 
	C46.626404,74.779953 45.292282,63.381893 43.964149,51.657684 
	C43.967144,50.896595 43.964146,50.461647 44.346901,50.007629 
	C45.911617,48.852753 47.560558,47.927345 48.180992,46.541485 
	C50.007679,42.461220 51.426579,38.198383 53.005104,34.007015 
	C53.749733,34.001099 54.494366,33.995186 55.610817,33.985611 
	C60.037384,32.988750 64.092125,31.995552 68.573898,31.002419 
z"/>
<path fill="#F8C759" opacity="1.000000" stroke="none" 
	d="
M20.320942,63.077942 
	C19.948652,61.942600 19.933813,60.880795 20.280966,59.324974 
	C21.134569,57.382473 21.678558,55.949295 22.107037,54.482372 
	C23.038204,51.294453 26.560076,49.756077 29.335041,50.830433 
	C32.090412,51.897198 35.101540,52.303364 38.255096,53.114124 
	C39.004982,53.486149 39.500275,53.743282 39.997612,54.374073 
	C40.002895,55.494713 40.006142,56.241699 40.009384,56.988682 
	C37.786507,67.621040 41.177086,77.964783 41.524342,88.456955 
	C41.628685,91.609650 40.245583,94.811569 39.299294,99.099236 
	C36.908024,96.000122 35.480556,94.269501 34.186752,92.444130 
	C32.435516,89.973381 30.754734,87.840828 27.398855,90.448875 
	C27.105745,90.676666 24.406862,89.022316 24.355461,88.151863 
	C24.006802,82.247513 24.381428,76.290787 23.852028,70.411339 
	C23.627375,67.916359 21.785349,65.567017 20.320942,63.077942 
z"/>
<path fill="#FDDA70" opacity="1.000000" stroke="none" 
	d="
M51.030190,195.989319 
	C51.030186,195.989319 51.002132,195.494080 51.019791,194.844940 
	C51.356365,191.797806 51.675282,189.399811 51.996414,186.573151 
	C51.995941,184.429230 51.993256,182.713974 51.990566,180.998718 
	C51.993980,180.249283 51.997398,179.499832 51.999794,177.946838 
	C52.002785,175.426819 52.006786,173.710358 52.338005,172.072937 
	C53.447002,173.240921 54.228794,174.329865 55.394600,175.953720 
	C56.041523,173.965454 56.524857,172.479950 57.257874,170.996185 
	C57.507557,170.997925 58.007122,170.999969 58.005993,171.437317 
	C58.004284,173.915604 58.003704,175.956512 58.001816,178.398209 
	C58.001247,179.866730 58.001987,180.934494 58.002708,182.448975 
	C57.676895,187.267593 57.351097,191.639481 57.021427,196.460632 
	C57.015106,199.607208 57.012661,202.304520 56.627159,204.982056 
	C55.222458,203.283249 54.177986,201.617523 53.186588,199.920807 
	C52.432816,198.630753 51.746513,197.301254 51.030190,195.989319 
z"/>
<path fill="#FEE277" opacity="1.000000" stroke="none" 
	d="
M57.008198,170.994461 
	C56.524857,172.479950 56.041523,173.965454 55.394600,175.953720 
	C54.228794,174.329865 53.447002,173.240921 52.088837,171.808517 
	C51.660816,168.316971 51.809166,165.168854 51.970146,161.572815 
	C51.650173,158.083786 51.317570,155.042694 50.984962,152.001602 
	C50.983585,149.961761 50.982208,147.921936 50.983604,145.445465 
	C52.764370,145.033951 54.542370,145.059036 56.669029,145.037231 
	C57.017693,144.990356 57.033615,144.988754 57.023632,145.458466 
	C57.011833,154.283600 57.010017,162.639023 57.008198,170.994461 
z"/>
<path fill="#FCD469" opacity="1.000000" stroke="none" 
	d="
M40.370491,57.084705 
	C40.006142,56.241699 40.002895,55.494713 40.260349,54.168518 
	C41.666752,53.054146 42.812458,52.518990 43.958160,51.983833 
	C45.292282,63.381893 46.626404,74.779953 47.720264,86.876869 
	C47.653500,90.050484 47.827000,92.525238 48.000504,95.000000 
	C47.999420,95.752342 47.998341,96.504692 47.990326,97.633362 
	C47.015671,96.439903 45.356747,94.938141 45.194435,93.289078 
	C44.265736,83.853615 43.812691,74.371803 42.921761,64.931824 
	C42.673618,62.302643 41.487434,59.761993 40.370491,57.084705 
z"/>
<path fill="#FBCC61" opacity="1.000000" stroke="none" 
	d="
M51.957520,162.020752 
	C51.809166,165.168854 51.660816,168.316971 51.761627,171.729492 
	C52.006786,173.710358 52.002785,175.426819 51.995224,177.572052 
	C48.048332,173.382660 48.860634,167.984253 50.061237,162.311127 
	C51.088757,162.008804 51.523140,162.014771 51.957520,162.020752 
z"/>
<path fill="#FCD469" opacity="1.000000" stroke="none" 
	d="
M49.004593,99.998405 
	C49.004883,100.442467 49.005169,100.886520 49.003258,102.064499 
	C49.006004,103.867455 49.010952,104.936478 49.015900,106.005508 
	C49.340324,109.054482 49.664749,112.103455 49.738407,115.689651 
	C49.000130,116.484169 48.512619,116.741463 48.025108,116.998756 
	C47.834503,111.544098 47.643898,106.089447 47.974586,100.317230 
	C48.665451,99.999252 48.835022,99.998825 49.004593,99.998405 
z"/>
<path fill="#FCD469" opacity="1.000000" stroke="none" 
	d="
M50.006340,125.002396 
	C50.002468,127.375595 49.998596,129.748795 49.984177,132.567245 
	C49.316216,131.401688 48.280361,129.834808 48.087193,128.170120 
	C47.771709,125.451370 48.005466,122.668892 48.373726,119.554474 
	C49.162083,121.131233 49.584209,123.066811 50.006340,125.002396 
z"/>
<path fill="#FEE075" opacity="1.000000" stroke="none" 
	d="
M50.364243,124.902946 
	C49.584209,123.066811 49.162083,121.131233 48.380005,119.089539 
	C48.018806,118.542473 48.017563,118.101509 48.020714,117.329651 
	C48.512619,116.741463 49.000130,116.484169 49.738472,116.111641 
	C51.457668,118.830246 53.416973,121.623238 50.364243,124.902946 
z"/>
<path fill="#FCD469" opacity="1.000000" stroke="none" 
	d="
M51.970150,161.572815 
	C51.523140,162.014771 51.088757,162.008804 50.328178,162.001099 
	C50.154816,158.872055 50.307652,155.744720 50.722725,152.309494 
	C51.317570,155.042694 51.650173,158.083786 51.970150,161.572815 
z"/>
<path fill="#FBCC61" opacity="1.000000" stroke="none" 
	d="
M51.658131,181.071716 
	C51.993256,182.713974 51.995941,184.429230 51.663849,186.572845 
	C50.885479,187.000961 50.441879,187.000687 49.998283,187.000412 
	C49.998150,186.251022 49.998013,185.501648 49.997643,184.377655 
	C50.440170,183.050278 50.882931,182.097504 51.658131,181.071716 
z"/>
<path fill="#FCD469" opacity="1.000000" stroke="none" 
	d="
M50.995300,139.004959 
	C50.991043,140.722870 50.986786,142.440765 50.967152,144.588531 
	C50.464092,143.193359 49.976406,141.368332 49.990417,139.272476 
	C50.659843,139.002762 50.827576,139.003860 50.995300,139.004959 
z"/>
<path fill="#FEE075" opacity="1.000000" stroke="none" 
	d="
M51.140579,138.680923 
	C50.827576,139.003860 50.659843,139.002762 50.240379,139.000824 
	C49.990078,137.610855 49.991512,136.221695 49.998474,134.415802 
	C50.431290,135.451675 50.858574,136.904282 51.140579,138.680923 
z"/>
<path fill="#FEE075" opacity="1.000000" stroke="none" 
	d="
M49.202789,99.814636 
	C48.835022,99.998825 48.665451,99.999252 48.241367,99.999832 
	C47.990414,99.554382 47.993973,99.108772 48.003902,98.328903 
	C48.473846,98.540054 48.937416,99.085464 49.202789,99.814636 
z"/>
<path fill="#F5C05C" opacity="1.000000" stroke="none" 
	d="
M71.998169,48.998432 
	C71.421509,50.844997 71.343895,53.131538 70.175697,54.456589 
	C66.502220,58.623318 66.128288,61.983238 72.010414,64.542397 
	C70.676956,67.998489 69.499222,71.050964 68.168518,74.499924 
	C69.875153,74.575859 71.231239,74.636200 71.691231,74.656670 
	C72.147072,80.987984 72.724709,86.902840 72.966873,92.831390 
	C73.414223,103.782814 74.357101,114.778137 73.792107,125.687767 
	C73.283318,135.512222 71.036636,145.247162 69.547066,155.020157 
	C68.724327,160.418060 67.645012,165.789673 67.111183,171.215424 
	C66.494736,177.481018 66.351463,183.793152 66.002335,190.992355 
	C66.001350,194.600143 66.000755,197.300674 65.685646,200.191559 
	C64.915054,202.255005 64.458984,204.128082 63.754726,206.188934 
	C62.671982,206.918198 61.837425,207.459717 61.018005,207.579666 
	C61.022202,201.438736 61.011253,195.719376 61.000576,189.555756 
	C60.999336,186.740356 60.997826,184.369217 60.997925,181.598145 
	C60.999744,180.132233 60.999954,179.066284 61.226994,177.816132 
	C61.636044,177.087967 61.818264,176.543991 62.332466,175.790253 
	C63.103664,174.553757 63.870819,173.545425 63.929749,172.497299 
	C64.365997,164.737686 64.691811,156.971298 64.988533,149.204620 
	C65.146721,145.064362 64.597206,140.806808 65.373528,136.797058 
	C67.884224,123.829185 66.131584,111.204124 62.983601,98.673126 
	C61.807064,93.989746 61.372566,89.612663 63.851986,85.221397 
	C65.337128,82.591080 65.850571,79.958374 62.891544,77.701065 
	C62.267033,77.224655 62.274860,75.919319 61.993149,74.663269 
	C61.997391,73.887077 61.999805,73.443542 62.231258,72.786453 
	C61.976307,71.712555 61.492321,70.852196 61.007626,69.554932 
	C61.006428,67.078842 61.005939,65.039673 61.256889,62.737843 
	C62.004372,58.648766 62.500423,54.822353 63.128365,50.737274 
	C63.840282,49.985485 64.420303,49.492363 65.352829,48.953545 
	C67.802948,48.938046 69.900558,48.968239 71.998169,48.998432 
z"/>
<path fill="#EAB759" opacity="1.000000" stroke="none" 
	d="
M66.000160,200.001190 
	C66.000755,197.300674 66.001350,194.600143 66.003563,191.449524 
	C66.776085,188.191864 67.713875,185.417953 68.287674,182.570694 
	C70.279343,172.687775 72.189438,162.787766 74.040680,152.877457 
	C75.103691,147.186905 76.325592,141.493759 76.841774,135.744858 
	C77.174866,132.035187 78.586525,130.632996 82.514839,130.999695 
	C82.940346,134.687851 82.957146,138.377197 82.950653,142.525146 
	C78.490211,144.392059 78.559364,148.437378 78.081017,151.869202 
	C77.112564,158.817474 76.992592,165.905960 75.693512,172.779938 
	C74.418823,179.524933 71.878288,186.021408 70.346718,192.730453 
	C69.329391,197.186859 69.109039,201.825195 68.011314,206.414490 
	C66.993843,204.298325 66.497002,202.149765 66.000160,200.001190 
z"/>
<path fill="#F6CA6A" opacity="1.000000" stroke="none" 
	d="
M65.000328,48.999237 
	C64.420303,49.492363 63.840282,49.985485 62.794411,50.737785 
	C61.883095,50.995598 61.437618,50.994236 60.993912,50.564014 
	C61.999252,45.097534 63.002823,40.059910 64.006393,35.022289 
	C64.753654,35.019562 65.500908,35.016834 66.664215,35.292553 
	C67.720177,35.710064 68.360092,35.849133 69.000015,35.988197 
	C70.752998,35.328018 72.505981,34.667839 74.630859,34.003807 
	C75.632217,34.453884 76.261696,34.907814 76.945648,35.669540 
	C76.995056,36.425606 76.989975,36.873871 76.623688,37.650963 
	C74.873848,38.007782 72.749016,37.470825 72.220863,38.159100 
	C69.583733,41.595764 67.365753,45.354073 65.000328,48.999237 
z"/>
<path fill="#F2C061" opacity="1.000000" stroke="none" 
	d="
M65.352829,48.953545 
	C67.365753,45.354073 69.583733,41.595764 72.220863,38.159100 
	C72.749016,37.470825 74.873848,38.007782 76.615547,37.986877 
	C75.312355,41.397224 73.656082,44.800495 71.998993,48.601097 
	C69.900558,48.968239 67.802948,48.938046 65.352829,48.953545 
z"/>
<path fill="#F4BE5A" opacity="1.000000" stroke="none" 
	d="
M30.273808,237.144623 
	C29.953905,229.620453 29.958941,222.275742 29.971516,214.461548 
	C33.060013,214.532257 34.263088,212.578766 35.447304,210.200104 
	C38.112801,204.846069 39.099922,204.620712 43.548744,208.590668 
	C46.008121,210.785324 48.080532,213.413620 50.930511,216.237152 
	C51.359432,221.748993 51.185230,226.870148 51.006355,232.459091 
	C51.000408,237.951462 50.999134,242.976044 50.997864,248.000610 
	C50.026917,246.809692 48.276592,245.651398 48.225101,244.421982 
	C48.039963,240.001373 45.308353,237.274902 42.611977,234.392273 
	C40.765968,232.418762 39.255325,232.947174 38.524212,235.172607 
	C36.906422,240.096985 34.120647,239.859390 30.273808,237.144623 
z"/>
<path fill="#FCD26B" opacity="1.000000" stroke="none" 
	d="
M51.011024,231.991287 
	C51.185230,226.870148 51.359432,221.748993 51.268768,216.312714 
	C51.006172,209.632339 51.008450,203.267090 51.020458,196.445587 
	C51.746513,197.301254 52.432816,198.630753 53.186588,199.920807 
	C54.177986,201.617523 55.222458,203.283249 56.885590,205.269424 
	C56.968212,214.938507 56.409351,224.300446 55.811371,234.317795 
	C53.556690,233.225052 52.283859,232.608170 51.011024,231.991287 
z"/>
<path fill="#FACB5E" opacity="1.000000" stroke="none" 
	d="
M49.739426,187.292053 
	C50.441879,187.000687 50.885479,187.000961 51.661636,187.001526 
	C51.675282,189.399811 51.356365,191.797806 51.020874,194.596924 
	C47.379890,193.167068 49.355675,190.185196 49.739426,187.292053 
z"/>
<path fill="#EDAC55" opacity="1.000000" stroke="none" 
	d="
M29.001137,289.387085 
	C28.998537,288.255219 29.000921,287.501831 29.003384,286.371796 
	C29.161432,284.829407 29.319408,283.663666 29.717556,282.238525 
	C34.426285,283.971375 39.015213,285.736115 43.330406,288.018402 
	C47.875572,290.422302 47.021271,294.994080 46.995842,299.560486 
	C44.570885,299.669128 42.157360,299.159576 39.723824,299.032135 
	C33.515240,298.707031 30.674051,296.331268 29.001137,289.387085 
z"/>
<path fill="#D3A050" opacity="1.000000" stroke="none" 
	d="
M48.382900,326.951782 
	C48.309361,325.578308 48.596653,324.142303 48.917709,322.338867 
	C48.975712,320.273834 48.999950,318.576233 49.334129,316.388367 
	C50.085384,315.259064 50.526699,314.619965 50.968018,313.980896 
	C50.986305,312.275604 51.004593,310.570282 51.034756,308.439331 
	C56.617420,304.653503 56.003304,298.315552 57.779766,293.273132 
	C60.780869,284.754669 62.830635,275.901031 65.695976,267.401215 
	C66.739441,268.075470 67.367348,268.536865 67.995255,268.998230 
	C67.996246,269.748901 67.997223,270.499542 67.650642,271.711670 
	C66.870346,273.451111 66.437607,274.729095 66.004883,276.007050 
	C61.139019,283.216553 63.194138,292.168854 60.023575,299.793793 
	C57.767353,305.219849 55.256851,310.542694 53.103405,316.007599 
	C52.341469,317.941193 52.586063,320.267700 51.844078,322.213928 
	C51.194183,323.918610 49.805855,325.341766 48.382900,326.951782 
z"/>
<path fill="#F2BD5F" opacity="1.000000" stroke="none" 
	d="
M48.997402,273.453003 
	C49.331455,271.268616 49.665997,269.536072 50.333527,267.401764 
	C51.110352,267.000000 51.554184,267.000000 51.999180,267.391083 
	C52.667332,269.188110 53.334320,270.594055 54.219322,272.209991 
	C54.295776,273.619965 54.154217,274.819977 54.012657,276.019958 
	C54.012955,276.456177 54.013252,276.892365 54.008430,278.034607 
	C54.004303,279.497284 54.005295,280.253967 54.007294,281.345398 
	C54.019642,282.126587 54.030987,282.573059 54.042336,283.019501 
	C53.711380,284.753204 53.380428,286.486908 53.030006,288.993530 
	C52.673561,291.511810 52.336594,293.257111 51.999626,295.002441 
	C51.002464,293.558075 49.238583,292.161499 49.145039,290.660797 
	C48.798035,285.094055 49.001308,279.493011 48.997402,273.453003 
z"/>
<path fill="#E2B059" opacity="1.000000" stroke="none" 
	d="
M52.001377,295.338135 
	C52.336594,293.257111 52.673561,291.511810 53.023190,289.374115 
	C59.239937,291.879913 53.631264,294.265076 52.358749,296.935120 
	C52.016708,296.569366 52.009918,296.121582 52.001377,295.338135 
z"/>
<path fill="#E6A854" opacity="1.000000" stroke="none" 
	d="
M50.659645,314.044678 
	C50.526699,314.619965 50.085384,315.259064 49.336296,315.963318 
	C49.469440,315.388489 49.910358,314.748505 50.659645,314.044678 
z"/>
<path fill="#EFBC5E" opacity="1.000000" stroke="none" 
	d="
M54.366173,275.926086 
	C54.154217,274.819977 54.295776,273.619965 54.219254,271.799164 
	C54.637787,268.689667 55.626438,266.232269 55.850811,263.706970 
	C56.888680,252.025787 57.622795,240.317734 58.650295,228.635529 
	C59.256630,221.741776 60.207134,214.878311 61.002861,208.001221 
	C61.837425,207.459717 62.671982,206.918198 64.012360,206.471863 
	C64.679604,208.377823 64.841026,210.188614 65.001923,212.399567 
	C65.000938,213.866867 65.000465,214.933990 64.773270,216.199478 
	C64.697350,217.264847 64.848145,218.131866 64.999504,219.333771 
	C65.003044,220.115311 65.006004,220.561935 65.008965,221.008575 
	C65.008255,221.756042 65.007545,222.503510 64.764664,223.848969 
	C64.346748,225.297745 64.171013,226.148499 63.715179,227.049500 
	C63.138710,227.414764 62.842346,227.729797 62.545975,228.044846 
	C63.029072,228.363541 63.512165,228.682236 63.997528,229.000458 
	C63.999790,229.000000 64.003357,229.000702 64.003357,229.000702 
	C63.705391,231.076096 63.407425,233.151474 62.717453,235.688339 
	C61.551788,238.433609 60.778122,240.717422 60.004456,243.001221 
	C58.999611,252.208374 58.083366,261.426819 56.914009,270.613007 
	C56.684414,272.416626 55.476433,274.095734 54.366173,275.926086 
z"/>
<path fill="#EBBA5F" opacity="1.000000" stroke="none" 
	d="
M65.002441,211.999390 
	C64.841026,210.188614 64.679604,208.377823 64.260544,206.284119 
	C64.458984,204.128082 64.915054,202.255005 65.685646,200.191559 
	C66.497002,202.149765 66.993843,204.298325 67.744621,206.724792 
	C67.997581,208.388947 67.996597,209.775177 67.620743,211.579132 
	C66.498062,211.997711 65.750252,211.998550 65.002441,211.999390 
z"/>
<path fill="#EAB759" opacity="1.000000" stroke="none" 
	d="
M65.001923,212.399567 
	C65.750252,211.998550 66.498062,211.997711 67.619637,211.995071 
	C67.238876,214.939850 66.484360,217.886398 65.369400,220.920776 
	C65.006004,220.561935 65.003044,220.115311 65.226418,219.135498 
	C65.301842,217.735245 65.150917,216.868179 65.000000,216.001114 
	C65.000465,214.933990 65.000938,213.866867 65.001923,212.399567 
z"/>
<path fill="#EBBA5F" opacity="1.000000" stroke="none" 
	d="
M60.307568,242.822754 
	C60.778122,240.717422 61.551788,238.433609 62.658169,236.074829 
	C62.197483,238.214661 61.404079,240.429474 60.307568,242.822754 
z"/>
<path fill="#EAB759" opacity="1.000000" stroke="none" 
	d="
M63.995281,226.999268 
	C64.171013,226.148499 64.346748,225.297745 64.764862,224.222717 
	C64.900314,225.609833 64.793381,227.221207 64.344894,228.916641 
	C64.003357,229.000702 63.999790,229.000000 63.998657,228.666840 
	C63.996777,227.888870 63.996029,227.444077 63.995281,226.999268 
z"/>
<path fill="#EFBC5E" opacity="1.000000" stroke="none" 
	d="
M54.006287,281.010651 
	C54.005295,280.253967 54.004303,279.497284 54.006863,278.361755 
	C54.750828,277.989746 55.491238,277.996613 56.601212,278.003540 
	C56.803097,278.849457 56.635418,279.695221 55.898476,280.768433 
	C54.888237,281.000793 54.447266,281.005707 54.006287,281.010651 
z"/>
<path fill="#D3A050" opacity="1.000000" stroke="none" 
	d="
M79.997803,225.573425 
	C79.997559,225.996948 79.994598,226.495300 79.620209,226.756989 
	C75.005768,227.744293 72.560966,229.685883 73.836700,234.495621 
	C74.112007,235.533585 73.771278,236.792892 73.515038,237.904312 
	C72.045151,244.279846 70.515198,250.641525 69.005623,257.007904 
	C68.371635,259.097931 67.737640,261.187958 66.801483,263.639954 
	C66.331329,264.002533 66.163353,264.003113 65.995384,264.003662 
	C65.858078,262.631470 65.420990,261.210602 65.634384,259.895325 
	C66.660408,253.571152 67.783531,247.260025 69.022614,240.973907 
	C70.362762,234.175034 71.775337,227.387238 73.335159,220.635941 
	C74.446037,215.827789 75.775215,211.064911 77.182846,206.334152 
	C77.528099,205.173813 78.561150,204.218124 79.638123,203.083679 
	C79.458580,206.207367 78.715477,209.398941 78.449471,212.629822 
	C78.266426,214.852997 78.668076,217.140335 78.951050,219.380981 
	C79.195580,221.317154 79.641273,223.227905 79.997803,225.573425 
z"/>
<path fill="#BD8A47" opacity="1.000000" stroke="none" 
	d="
M60.659752,321.080994 
	C59.769909,324.692413 58.723461,328.459473 57.268429,332.061523 
	C55.337971,336.840515 53.345558,341.629822 50.896656,346.153168 
	C48.852150,349.929565 46.112362,353.329498 43.335472,356.942078 
	C43.331455,354.269012 43.672455,351.550018 44.026794,348.419861 
	C45.694477,346.320099 47.938171,344.908905 48.888828,342.889099 
	C51.392765,337.569214 53.334835,331.984924 55.750301,326.251129 
	C57.440384,324.385315 58.880833,322.774261 60.659752,321.080994 
z"/>
<path fill="#D0A156" opacity="1.000000" stroke="none" 
	d="
M69.345444,256.927765 
	C70.515198,250.641525 72.045151,244.279846 73.515038,237.904312 
	C73.771278,236.792892 74.112007,235.533585 73.836700,234.495621 
	C72.560966,229.685883 75.005768,227.744293 79.618393,227.006165 
	C79.995888,228.064819 80.000793,229.135971 80.013229,230.609009 
	C80.015175,231.760147 80.009598,232.509430 80.000046,233.633759 
	C78.336693,237.181152 76.510986,240.279480 75.058769,243.543961 
	C73.116043,247.911087 71.462814,252.407013 69.345444,256.927765 
z"/>
<path fill="#D0A156" opacity="1.000000" stroke="none" 
	d="
M65.996109,264.377197 
	C66.163353,264.003113 66.331329,264.002533 66.751312,264.001526 
	C67.334846,265.410950 67.666382,266.820831 67.996582,268.614441 
	C67.367348,268.536865 66.739441,268.075470 66.053711,267.302795 
	C65.996208,266.244537 65.996529,265.497650 65.996109,264.377197 
z"/>
<path fill="#D0A156" opacity="1.000000" stroke="none" 
	d="
M66.350746,275.918976 
	C66.437607,274.729095 66.870346,273.451111 67.649399,272.087006 
	C67.562691,273.277527 67.129654,274.554230 66.350746,275.918976 
z"/>
<path fill="#E2B059" opacity="1.000000" stroke="none" 
	d="
M54.007294,281.345398 
	C54.447266,281.005707 54.888237,281.000793 55.659843,280.993073 
	C55.544853,281.624084 55.099232,282.257935 54.347973,282.955627 
	C54.030987,282.573059 54.019642,282.126587 54.007294,281.345398 
z"/>
<path fill="#DCA456" opacity="1.000000" stroke="none" 
	d="
M28.883648,295.820618 
	C28.699661,295.894714 28.459976,295.696930 28.170588,295.224701 
	C28.356016,295.152008 28.591705,295.351501 28.883648,295.820618 
z"/>
<path fill="#CE8E49" opacity="1.000000" stroke="none" 
	d="
M42.684731,357.026550 
	C42.786549,357.529724 42.615818,358.079681 42.217003,358.815308 
	C42.130001,358.358459 42.271091,357.715851 42.684731,357.026550 
z"/>
<path fill="#C78344" opacity="1.000000" stroke="none" 
	d="
M37.051407,378.627991 
	C33.614197,376.626953 29.564638,374.780273 27.086407,371.678284 
	C25.448404,369.627991 26.066719,365.775146 25.835127,362.362854 
	C30.121025,364.309204 34.246647,366.622070 38.725250,368.998718 
	C38.421070,372.124664 37.763905,375.186768 37.051407,378.627991 
z"/>
<path fill="#FCDD73" opacity="1.000000" stroke="none" 
	d="
M15.442238,32.004375 
	C15.006656,29.970018 14.997750,27.933121 14.985857,25.461491 
	C21.386007,26.992023 27.834759,28.824167 34.167789,30.994053 
	C36.413822,31.763613 38.378147,33.355377 40.788361,35.140602 
	C41.490410,37.384384 42.027039,39.041477 42.226818,40.738235 
	C42.589008,43.814411 42.750538,46.914207 42.662613,50.000374 
	C41.553085,49.664093 40.776772,49.331585 40.000458,48.999081 
	C40.907475,41.298946 36.625538,37.685429 30.546513,33.532207 
	C25.122204,29.826298 20.684332,32.548595 15.442238,32.004375 
z"/>
<path fill="#FFEC85" opacity="1.000000" stroke="none" 
	d="
M42.995834,50.004147 
	C42.750538,46.914207 42.589008,43.814411 42.226818,40.738235 
	C42.027039,39.041477 41.490410,37.384384 41.055748,35.352612 
	C44.733273,34.664940 48.460690,34.334068 52.596603,34.005104 
	C51.426579,38.198383 50.007679,42.461220 48.180992,46.541485 
	C47.560558,47.927345 45.911617,48.852753 44.105804,50.001823 
	C43.478951,50.015087 42.995834,50.004147 42.995834,50.004147 
z"/>
<path fill="#F9E48B" opacity="1.000000" stroke="none" 
	d="
M58.885063,27.765890 
	C58.849045,27.966261 58.678165,27.974356 58.250633,27.986317 
	C57.993977,27.990185 57.975048,27.550133 57.960255,27.331474 
	C58.263645,27.179224 58.531891,27.332823 58.885063,27.765890 
z"/>
<path fill="#D8984D" opacity="1.000000" stroke="none" 
	d="
M27.485029,319.473389 
	C27.518908,319.456665 27.451151,319.490143 27.485029,319.473389 
z"/>
<path fill="#F6C765" opacity="1.000000" stroke="none" 
	d="
M61.018005,207.579666 
	C60.207134,214.878311 59.256630,221.741776 58.650295,228.635529 
	C57.622795,240.317734 56.888680,252.025787 55.850811,263.706970 
	C55.626438,266.232269 54.637787,268.689667 54.001240,271.589172 
	C53.334320,270.594055 52.667332,269.188110 51.999931,266.927856 
	C51.666714,261.715698 51.333912,257.357849 51.001114,253.000000 
	C51.000824,251.611267 51.000530,250.222534 50.999046,248.417206 
	C50.999134,242.976044 51.000408,237.951462 51.006355,232.459091 
	C52.283859,232.608170 53.556690,233.225052 55.811371,234.317795 
	C56.409351,224.300446 56.968212,214.938507 57.268646,205.289185 
	C57.012661,202.304520 57.015106,199.607208 57.399433,196.437195 
	C58.854309,193.976334 59.927307,191.988159 61.000305,190.000000 
	C61.011253,195.719376 61.022202,201.438736 61.018005,207.579666 
z"/>
<path fill="#F4BE5A" opacity="1.000000" stroke="none" 
	d="
M50.732510,253.314087 
	C51.333912,257.357849 51.666714,261.715698 51.998764,266.536774 
	C51.554184,267.000000 51.110352,267.000000 50.333641,267.000000 
	C50.155144,262.542725 50.309528,258.085449 50.732510,253.314087 
z"/>
<path fill="#FACD62" opacity="1.000000" stroke="none" 
	d="
M17.036757,46.002419 
	C17.010864,44.303387 16.984972,42.604359 16.955183,40.483765 
	C18.520948,34.996418 23.038403,36.311531 25.432056,37.615902 
	C29.996479,40.103176 33.791599,44.002201 37.952972,47.657646 
	C37.999847,48.000153 37.996426,48.003380 37.652260,47.954483 
	C33.142918,45.110645 29.714573,40.239281 23.569790,43.014301 
	C21.387390,43.999882 19.214167,45.005787 17.036757,46.002419 
z"/>
<path fill="#FACD62" opacity="1.000000" stroke="none" 
	d="
M42.662613,50.000374 
	C42.995834,50.004147 43.478951,50.015087 43.720047,50.020893 
	C43.964146,50.461647 43.967144,50.896595 43.964149,51.657688 
	C42.812458,52.518990 41.666752,53.054146 40.258308,53.794861 
	C39.500275,53.743282 39.004982,53.486149 38.255020,52.697762 
	C37.999043,50.778801 37.997734,49.391090 37.996426,48.003380 
	C37.996426,48.003380 37.999847,48.000153 38.000305,47.999809 
	C38.497128,48.256496 38.993496,48.513523 39.745159,48.884819 
	C40.776772,49.331585 41.553085,49.664093 42.662613,50.000374 
z"/>
<path fill="#FACB5E" opacity="1.000000" stroke="none" 
	d="
M37.652260,47.954483 
	C37.997734,49.391090 37.999043,50.778801 38.000427,52.582870 
	C35.101540,52.303364 32.090412,51.897198 29.335041,50.830433 
	C26.560076,49.756077 23.038204,51.294453 22.107037,54.482372 
	C21.678558,55.949295 21.134569,57.382473 20.275360,58.926819 
	C19.612448,58.546131 19.317135,58.069572 19.198271,57.124580 
	C18.930496,56.103310 18.486273,55.550472 18.042049,54.997639 
	C17.708935,52.270157 17.375824,49.542675 17.039734,46.408806 
	C19.214167,45.005787 21.387390,43.999882 23.569790,43.014301 
	C29.714573,40.239281 33.142918,45.110645 37.652260,47.954483 
z"/>
<path fill="#FACD62" opacity="1.000000" stroke="none" 
	d="
M18.058952,55.288864 
	C18.486273,55.550472 18.930496,56.103310 19.169403,56.836136 
	C18.668007,56.537445 18.371929,56.058769 18.058952,55.288864 
z"/>
<path fill="#FBCF65" opacity="1.000000" stroke="none" 
	d="
M61.005451,63.000507 
	C61.005939,65.039673 61.006428,67.078842 61.009846,69.889557 
	C61.342590,71.440735 61.672401,72.220367 62.002220,73.000000 
	C61.999805,73.443542 61.997391,73.887077 61.609573,74.734543 
	C60.484852,76.462784 59.146420,77.769493 59.106899,79.114372 
	C58.904297,86.009323 58.738567,92.930298 59.113037,99.812080 
	C59.889858,114.088028 61.004494,128.345779 62.004730,142.609283 
	C62.293556,146.727951 62.977715,150.844376 62.930336,154.955460 
	C62.849453,161.972946 62.333618,168.985428 62.000484,176.000000 
	C61.818264,176.543991 61.636044,177.087967 60.852283,177.816284 
	C59.501534,177.999557 58.752331,177.998489 58.003124,177.997437 
	C58.003704,175.956512 58.004284,173.915604 58.387634,171.319977 
	C59.100021,170.415100 59.711765,170.069641 59.717670,169.714111 
	C59.840778,162.306900 59.990810,154.896515 59.833271,147.493179 
	C59.815090,146.638901 58.010151,145.822632 57.033615,144.988754 
	C57.033615,144.988754 57.017693,144.990356 57.011486,144.993652 
	C57.007698,140.974869 57.010120,136.952805 57.395996,132.348206 
	C58.186008,130.426575 58.996361,129.069092 58.936367,127.751236 
	C58.366428,115.232460 57.693653,102.717545 56.895733,90.211388 
	C56.825161,89.105301 55.660538,88.069016 55.003414,86.600784 
	C55.006332,85.136253 55.009892,84.071243 55.366253,82.911980 
	C56.110016,82.153404 56.832779,81.493469 56.841637,80.824097 
	C56.955532,72.215706 56.967537,63.605957 57.398155,55.020939 
	C58.524857,56.124222 59.480244,57.117874 59.936562,58.303593 
	C60.507320,59.786697 60.667839,61.427677 61.005451,63.000507 
z"/>
<path fill="#FBD46B" opacity="1.000000" stroke="none" 
	d="
M57.005341,54.996555 
	C56.967537,63.605957 56.955532,72.215706 56.841637,80.824097 
	C56.832779,81.493469 56.110016,82.153404 55.324432,82.594330 
	C54.286022,81.581024 53.642231,80.791115 52.998436,80.001205 
	C53.331074,76.573181 54.295979,73.065132 53.874187,69.732597 
	C52.746201,60.820423 54.893108,52.506111 57.414280,44.172672 
	C58.030277,42.136566 58.118172,39.833710 59.153427,38.066147 
	C59.944569,36.715378 61.847107,36.015560 63.630833,35.024239 
	C63.002823,40.059910 61.999252,45.097534 60.655704,50.612984 
	C59.212265,52.392723 58.108803,53.694637 57.005341,54.996555 
z"/>
<path fill="#FBD46B" opacity="1.000000" stroke="none" 
	d="
M55.004051,87.000305 
	C55.660538,88.069016 56.825161,89.105301 56.895733,90.211388 
	C57.693653,102.717545 58.366428,115.232460 58.936367,127.751236 
	C58.996361,129.069092 58.186008,130.426575 57.399654,131.885361 
	C57.009045,129.963074 56.998238,127.921097 56.987564,125.079308 
	C56.657990,123.186394 56.328278,122.093300 55.998569,121.000198 
	C55.378323,113.609032 54.758076,106.217857 54.272125,98.255402 
	C54.271141,97.122536 54.135868,96.560966 54.000587,95.999390 
	C53.999016,93.298973 53.997444,90.598564 54.248070,87.448860 
	C54.668190,86.999817 54.836121,87.000061 55.004051,87.000305 
z"/>
<path fill="#FEE277" opacity="1.000000" stroke="none" 
	d="
M55.003414,86.600784 
	C54.836121,87.000061 54.668190,86.999817 54.248329,86.998779 
	C53.502781,84.828011 53.009171,82.658051 52.757000,80.244644 
	C53.642231,80.791115 54.286022,81.581024 54.971626,82.688583 
	C55.009892,84.071243 55.006332,85.136253 55.003414,86.600784 
z"/>
<path fill="#FEE075" opacity="1.000000" stroke="none" 
	d="
M48.258240,94.712341 
	C47.827000,92.525238 47.653500,90.050484 47.735889,87.286880 
	C48.166508,89.473595 48.341240,91.949142 48.258240,94.712341 
z"/>
<path fill="#FEE075" opacity="1.000000" stroke="none" 
	d="
M49.346855,105.924034 
	C49.010952,104.936478 49.006004,103.867455 49.004799,102.397545 
	C51.503696,102.883240 51.613636,104.184891 49.346855,105.924034 
z"/>
<path fill="#FEE277" opacity="1.000000" stroke="none" 
	d="
M55.758835,121.237808 
	C56.328278,122.093300 56.657990,123.186394 56.982525,124.641922 
	C56.491264,123.828033 56.005180,122.651726 55.758835,121.237808 
z"/>
<path fill="#FBD46B" opacity="1.000000" stroke="none" 
	d="
M68.814636,35.763435 
	C68.360092,35.849133 67.720177,35.710064 67.037842,35.295738 
	C67.540039,35.193211 68.084648,35.365944 68.814636,35.763435 
z"/>
<path fill="#FEE277" opacity="1.000000" stroke="none" 
	d="
M53.798874,96.157608 
	C54.135868,96.560966 54.271141,97.122536 54.206730,97.843246 
	C53.870415,97.440186 53.733784,96.878006 53.798874,96.157608 
z"/>
<path fill="#FBD46B" opacity="1.000000" stroke="none" 
	d="
M57.023636,145.458466 
	C58.010151,145.822632 59.815090,146.638901 59.833271,147.493179 
	C59.990810,154.896515 59.840778,162.306900 59.717670,169.714111 
	C59.711765,170.069641 59.100021,170.415100 58.388763,170.882614 
	C58.007122,170.999969 57.507557,170.997925 57.257881,170.996185 
	C57.010017,162.639023 57.011833,154.283600 57.023636,145.458466 
z"/>
<path fill="#FBCF65" opacity="1.000000" stroke="none" 
	d="
M61.000580,189.555756 
	C59.927307,191.988159 58.854309,193.976334 57.403305,195.987946 
	C57.351097,191.639481 57.676895,187.267593 58.376881,182.448120 
	C59.499485,181.999710 60.247898,181.998901 60.996315,181.998077 
	C60.997826,184.369217 60.999336,186.740356 61.000580,189.555756 
z"/>
<path fill="#FBD46B" opacity="1.000000" stroke="none" 
	d="
M60.997925,181.598145 
	C60.247898,181.998901 59.499485,181.999710 58.376896,182.001389 
	C58.001987,180.934494 58.001247,179.866730 58.001816,178.398209 
	C58.752331,177.998489 59.501534,177.999557 60.625450,178.000473 
	C60.999954,179.066284 60.999744,180.132233 60.997925,181.598145 
z"/>
<path fill="#F9CA60" opacity="1.000000" stroke="none" 
	d="
M62.332466,175.790253 
	C62.333618,168.985428 62.849453,161.972946 62.930336,154.955460 
	C62.977715,150.844376 62.293556,146.727951 62.004730,142.609283 
	C61.004494,128.345779 59.889858,114.088028 59.113037,99.812080 
	C58.738567,92.930298 58.904297,86.009323 59.106899,79.114372 
	C59.146420,77.769493 60.484852,76.462784 61.607746,75.067200 
	C62.274860,75.919319 62.267033,77.224655 62.891544,77.701065 
	C65.850571,79.958374 65.337128,82.591080 63.851986,85.221397 
	C61.372566,89.612663 61.807064,93.989746 62.983601,98.673126 
	C66.131584,111.204124 67.884224,123.829185 65.373528,136.797058 
	C64.597206,140.806808 65.146721,145.064362 64.988533,149.204620 
	C64.691811,156.971298 64.365997,164.737686 63.929749,172.497299 
	C63.870819,173.545425 63.103664,174.553757 62.332466,175.790253 
z"/>
<path fill="#F9CA60" opacity="1.000000" stroke="none" 
	d="
M57.398155,55.020939 
	C58.108803,53.694637 59.212265,52.392723 60.653938,51.041840 
	C61.437618,50.994236 61.883095,50.995598 62.662521,50.996452 
	C62.500423,54.822353 62.004372,58.648766 61.256889,62.737843 
	C60.667839,61.427677 60.507320,59.786697 59.936562,58.303593 
	C59.480244,57.117874 58.524857,56.124222 57.398155,55.020939 
z"/>
<path fill="#F9CA60" opacity="1.000000" stroke="none" 
	d="
M62.231255,72.786453 
	C61.672401,72.220367 61.342590,71.440735 61.010555,70.326477 
	C61.492321,70.852196 61.976307,71.712555 62.231255,72.786453 
z"/>
<path fill="#EBBA5F" opacity="1.000000" stroke="none" 
	d="
M64.773277,216.199478 
	C65.150917,216.868179 65.301842,217.735245 65.225845,218.800598 
	C64.848145,218.131866 64.697350,217.264847 64.773277,216.199478 
z"/>
<path fill="#EBBA5F" opacity="1.000000" stroke="none" 
	d="
M63.715179,227.049500 
	C63.996029,227.444077 63.996777,227.888870 63.996391,228.667297 
	C63.512165,228.682236 63.029072,228.363541 62.545975,228.044846 
	C62.842346,227.729797 63.138710,227.414764 63.715179,227.049500 
z"/>
</svg>